%TF.GenerationSoftware,KiCad,Pcbnew,9.0.7*%
%TF.CreationDate,2026-01-03T15:51:29+01:00*%
%TF.ProjectId,Hackpad,4861636b-7061-4642-9e6b-696361645f70,rev?*%
%TF.SameCoordinates,Original*%
%TF.FileFunction,Copper,L2,Bot*%
%TF.FilePolarity,Positive*%
%FSLAX46Y46*%
G04 Gerber Fmt 4.6, Leading zero omitted, Abs format (unit mm)*
G04 Created by KiCad (PCBNEW 9.0.7) date 2026-01-03 15:51:29*
%MOMM*%
%LPD*%
G01*
G04 APERTURE LIST*
%TA.AperFunction,ComponentPad*%
%ADD10C,1.400000*%
%TD*%
%TA.AperFunction,ComponentPad*%
%ADD11C,2.500000*%
%TD*%
%TA.AperFunction,ComponentPad*%
%ADD12R,2.000000X2.000000*%
%TD*%
%TA.AperFunction,ComponentPad*%
%ADD13C,2.000000*%
%TD*%
%TA.AperFunction,ComponentPad*%
%ADD14C,3.200000*%
%TD*%
%TA.AperFunction,ComponentPad*%
%ADD15C,1.524000*%
%TD*%
%TA.AperFunction,Conductor*%
%ADD16C,0.508000*%
%TD*%
%TA.AperFunction,Conductor*%
%ADD17C,0.254000*%
%TD*%
%TA.AperFunction,Conductor*%
%ADD18C,0.200000*%
%TD*%
G04 APERTURE END LIST*
D10*
%TO.P,OL1,1,SDA*%
%TO.N,Net-(OL1-SDA)*%
X95750000Y-99190000D03*
%TO.P,OL1,2,SCL*%
%TO.N,Net-(OL1-SCL)*%
X95750000Y-101730000D03*
%TO.P,OL1,3,VCC*%
%TO.N,+5V*%
X95750000Y-104270000D03*
%TO.P,OL1,4,GND*%
%TO.N,GND*%
X95750000Y-106810000D03*
%TD*%
D11*
%TO.P,SW2,1,1*%
%TO.N,Net-(U1-GPIO4{slash}MISO)*%
X101165000Y-123666250D03*
%TO.P,SW2,2,2*%
%TO.N,GND*%
X107515000Y-121126250D03*
%TD*%
%TO.P,SW1,1,1*%
%TO.N,Net-(U1-GPIO29{slash}ADC3{slash}A3)*%
X82115000Y-123666250D03*
%TO.P,SW1,2,2*%
%TO.N,GND*%
X88465000Y-121126250D03*
%TD*%
D12*
%TO.P,SW6,A,A*%
%TO.N,Net-(U1-GPIO27{slash}ADC1{slash}A1)*%
X157000000Y-105500000D03*
D13*
%TO.P,SW6,B,B*%
%TO.N,Net-(U1-GPIO26{slash}ADC0{slash}A0)*%
X157000000Y-100500000D03*
%TO.P,SW6,C,C*%
%TO.N,GND*%
X157000000Y-103000000D03*
D14*
%TO.P,SW6,MP,MP*%
%TO.N,unconnected-(SW6-PadMP)*%
X149500000Y-108600000D03*
X149500000Y-97400000D03*
D13*
%TO.P,SW6,S1,S1*%
%TO.N,Net-(U1-GPIO3{slash}MOSI)*%
X142500000Y-100500000D03*
%TO.P,SW6,S2,S2*%
%TO.N,GND*%
X142500000Y-105500000D03*
%TD*%
D15*
%TO.P,U1,1,GPIO26/ADC0/A0*%
%TO.N,Net-(U1-GPIO26{slash}ADC0{slash}A0)*%
X107220000Y-70880000D03*
%TO.P,U1,2,GPIO27/ADC1/A1*%
%TO.N,Net-(U1-GPIO27{slash}ADC1{slash}A1)*%
X107220000Y-73420000D03*
%TO.P,U1,3,GPIO28/ADC2/A2*%
%TO.N,Net-(D1-DIN)*%
X107220000Y-75960000D03*
%TO.P,U1,4,GPIO29/ADC3/A3*%
%TO.N,Net-(U1-GPIO29{slash}ADC3{slash}A3)*%
X107220000Y-78500000D03*
%TO.P,U1,5,GPIO6/SDA*%
%TO.N,Net-(OL1-SDA)*%
X107220000Y-81040000D03*
%TO.P,U1,6,GPIO7/SCL*%
%TO.N,Net-(OL1-SCL)*%
X107220000Y-83580000D03*
%TO.P,U1,7,GPIO0/TX*%
%TO.N,Net-(U1-GPIO0{slash}TX)*%
X107220000Y-86120000D03*
%TO.P,U1,8,GPIO1/RX*%
%TO.N,Net-(U1-GPIO1{slash}RX)*%
X122460000Y-86120000D03*
%TO.P,U1,9,GPIO2/SCK*%
%TO.N,Net-(U1-GPIO2{slash}SCK)*%
X122460000Y-83580000D03*
%TO.P,U1,10,GPIO4/MISO*%
%TO.N,Net-(U1-GPIO4{slash}MISO)*%
X122460000Y-81040000D03*
%TO.P,U1,11,GPIO3/MOSI*%
%TO.N,Net-(U1-GPIO3{slash}MOSI)*%
X122460000Y-78500000D03*
%TO.P,U1,12,3V3*%
%TO.N,unconnected-(U1-3V3-Pad12)*%
X122460000Y-75960000D03*
%TO.P,U1,13,GND*%
%TO.N,GND*%
X122460000Y-73420000D03*
%TO.P,U1,14,VBUS*%
%TO.N,+5V*%
X122460000Y-70880000D03*
%TD*%
D11*
%TO.P,SW5,1,1*%
%TO.N,Net-(U1-GPIO0{slash}TX)*%
X75690000Y-100460000D03*
%TO.P,SW5,2,2*%
%TO.N,GND*%
X82040000Y-97920000D03*
%TD*%
%TO.P,SW4,1,1*%
%TO.N,Net-(U1-GPIO1{slash}RX)*%
X139265000Y-123666250D03*
%TO.P,SW4,2,2*%
%TO.N,GND*%
X145615000Y-121126250D03*
%TD*%
%TO.P,SW3,1,1*%
%TO.N,Net-(U1-GPIO2{slash}SCK)*%
X120215000Y-123666250D03*
%TO.P,SW3,2,2*%
%TO.N,GND*%
X126565000Y-121126250D03*
%TD*%
D16*
%TO.N,GND*%
X91075000Y-106810000D02*
X95750000Y-106810000D01*
X88465000Y-109420000D02*
X88465000Y-100265000D01*
X86120000Y-97920000D02*
X82040000Y-97920000D01*
X88465000Y-109420000D02*
X91075000Y-106810000D01*
X88465000Y-109420000D02*
X88465000Y-121126250D01*
X88465000Y-100265000D02*
X86120000Y-97920000D01*
D17*
%TO.N,Net-(U1-GPIO0{slash}TX)*%
X90030000Y-86120000D02*
X107220000Y-86120000D01*
X75690000Y-100460000D02*
X90030000Y-86120000D01*
%TO.N,unconnected-(SW6-PadMP)*%
X149500000Y-97400000D02*
X149500000Y-108600000D01*
%TO.N,Net-(U1-GPIO26{slash}ADC0{slash}A0)*%
X108490000Y-72150000D02*
X107220000Y-70880000D01*
X150350000Y-72150000D02*
X108490000Y-72150000D01*
X157000000Y-100500000D02*
X157000000Y-78800000D01*
X157000000Y-78800000D02*
X150350000Y-72150000D01*
D18*
%TO.N,Net-(U1-GPIO1{slash}RX)*%
X122460000Y-106861250D02*
X139265000Y-123666250D01*
X122460000Y-86120000D02*
X122460000Y-106861250D01*
%TO.N,Net-(U1-GPIO2{slash}SCK)*%
X120215000Y-85825000D02*
X120215000Y-123666250D01*
X122460000Y-83580000D02*
X120215000Y-85825000D01*
%TO.N,Net-(U1-GPIO29{slash}ADC3{slash}A3)*%
X71200000Y-99000000D02*
X71200000Y-118000000D01*
X76866250Y-123666250D02*
X82115000Y-123666250D01*
X71200000Y-118000000D02*
X76866250Y-123666250D01*
X91700000Y-78500000D02*
X71200000Y-99000000D01*
X107220000Y-78500000D02*
X91700000Y-78500000D01*
D17*
%TO.N,Net-(U1-GPIO4{slash}MISO)*%
X110203750Y-123666250D02*
X118480000Y-115390000D01*
X101165000Y-123666250D02*
X110203750Y-123666250D01*
X118480000Y-85020000D02*
X122460000Y-81040000D01*
X118480000Y-115390000D02*
X118480000Y-85020000D01*
%TO.N,Net-(U1-GPIO27{slash}ADC1{slash}A1)*%
X154280000Y-103120000D02*
X154280000Y-79080000D01*
X156660000Y-105500000D02*
X154280000Y-103120000D01*
X154280000Y-79080000D02*
X149850000Y-74650000D01*
X108450000Y-74650000D02*
X107220000Y-73420000D01*
X149850000Y-74650000D02*
X108450000Y-74650000D01*
%TO.N,Net-(U1-GPIO3{slash}MOSI)*%
X142500000Y-81800000D02*
X139200000Y-78500000D01*
X139200000Y-78500000D02*
X122460000Y-78500000D01*
X142500000Y-100500000D02*
X142500000Y-81800000D01*
%TD*%
%TA.AperFunction,Conductor*%
%TO.N,GND*%
G36*
X150105758Y-72797185D02*
G01*
X150126400Y-72813819D01*
X156336181Y-79023600D01*
X156369666Y-79084923D01*
X156372500Y-79111281D01*
X156372500Y-99059688D01*
X156352815Y-99126727D01*
X156304796Y-99170172D01*
X156213569Y-99216655D01*
X156120216Y-99284481D01*
X156022490Y-99355483D01*
X156022488Y-99355485D01*
X156022487Y-99355485D01*
X155855485Y-99522487D01*
X155855485Y-99522488D01*
X155855483Y-99522490D01*
X155813205Y-99580681D01*
X155716657Y-99713566D01*
X155609433Y-99924003D01*
X155536446Y-100148631D01*
X155499500Y-100381902D01*
X155499500Y-100618097D01*
X155536446Y-100851368D01*
X155609433Y-101075996D01*
X155690897Y-101235876D01*
X155716657Y-101286433D01*
X155855483Y-101477510D01*
X156022490Y-101644517D01*
X156078739Y-101685384D01*
X156121403Y-101740713D01*
X156126095Y-101772542D01*
X156870591Y-102517037D01*
X156807007Y-102534075D01*
X156692993Y-102599901D01*
X156599901Y-102692993D01*
X156534075Y-102807007D01*
X156517037Y-102870591D01*
X155777340Y-102130894D01*
X155717084Y-102213830D01*
X155609897Y-102424197D01*
X155536934Y-102648752D01*
X155500000Y-102881947D01*
X155500000Y-103118050D01*
X155503255Y-103138606D01*
X155494298Y-103207899D01*
X155449300Y-103261350D01*
X155382548Y-103281987D01*
X155315235Y-103263260D01*
X155293100Y-103245681D01*
X154943819Y-102896400D01*
X154910334Y-102835077D01*
X154907500Y-102808719D01*
X154907500Y-79018194D01*
X154883386Y-78896970D01*
X154883385Y-78896969D01*
X154883385Y-78896965D01*
X154841414Y-78795637D01*
X154836086Y-78782773D01*
X154836079Y-78782760D01*
X154767412Y-78679993D01*
X154767411Y-78679992D01*
X154680008Y-78592589D01*
X152532048Y-76444629D01*
X150250011Y-74162591D01*
X150250006Y-74162587D01*
X150240102Y-74155969D01*
X150240088Y-74155961D01*
X150237197Y-74154029D01*
X150147233Y-74093917D01*
X150113784Y-74080062D01*
X150105745Y-74076732D01*
X150105740Y-74076729D01*
X150033035Y-74046614D01*
X150033027Y-74046612D01*
X149911807Y-74022500D01*
X149911803Y-74022500D01*
X123761852Y-74022500D01*
X123694813Y-74002815D01*
X123649058Y-73950011D01*
X123639114Y-73880853D01*
X123643921Y-73860181D01*
X123690925Y-73715519D01*
X123722000Y-73519321D01*
X123722000Y-73320678D01*
X123690925Y-73124480D01*
X123630924Y-72939819D01*
X123628929Y-72869978D01*
X123665009Y-72810145D01*
X123727710Y-72779316D01*
X123748855Y-72777500D01*
X150038719Y-72777500D01*
X150105758Y-72797185D01*
G37*
%TD.AperFunction*%
%TA.AperFunction,Conductor*%
G36*
X163442539Y-68520185D02*
G01*
X163488294Y-68572989D01*
X163499500Y-68624500D01*
X163499500Y-137375500D01*
X163479815Y-137442539D01*
X163427011Y-137488294D01*
X163375500Y-137499500D01*
X65624500Y-137499500D01*
X65557461Y-137479815D01*
X65511706Y-137427011D01*
X65500500Y-137375500D01*
X65500500Y-131878711D01*
X69149500Y-131878711D01*
X69149500Y-132121288D01*
X69181161Y-132361785D01*
X69243947Y-132596104D01*
X69336773Y-132820205D01*
X69336776Y-132820212D01*
X69458064Y-133030289D01*
X69458066Y-133030292D01*
X69458067Y-133030293D01*
X69605733Y-133222736D01*
X69605739Y-133222743D01*
X69777256Y-133394260D01*
X69777262Y-133394265D01*
X69969711Y-133541936D01*
X70179788Y-133663224D01*
X70403900Y-133756054D01*
X70638211Y-133818838D01*
X70818586Y-133842584D01*
X70878711Y-133850500D01*
X70878712Y-133850500D01*
X71121289Y-133850500D01*
X71169388Y-133844167D01*
X71361789Y-133818838D01*
X71596100Y-133756054D01*
X71820212Y-133663224D01*
X72030289Y-133541936D01*
X72222738Y-133394265D01*
X72394265Y-133222738D01*
X72541936Y-133030289D01*
X72663224Y-132820212D01*
X72756054Y-132596100D01*
X72818838Y-132361789D01*
X72850500Y-132121288D01*
X72850500Y-131878712D01*
X72850500Y-131878711D01*
X156149500Y-131878711D01*
X156149500Y-132121288D01*
X156181161Y-132361785D01*
X156243947Y-132596104D01*
X156336773Y-132820205D01*
X156336776Y-132820212D01*
X156458064Y-133030289D01*
X156458066Y-133030292D01*
X156458067Y-133030293D01*
X156605733Y-133222736D01*
X156605739Y-133222743D01*
X156777256Y-133394260D01*
X156777262Y-133394265D01*
X156969711Y-133541936D01*
X157179788Y-133663224D01*
X157403900Y-133756054D01*
X157638211Y-133818838D01*
X157818586Y-133842584D01*
X157878711Y-133850500D01*
X157878712Y-133850500D01*
X158121289Y-133850500D01*
X158169388Y-133844167D01*
X158361789Y-133818838D01*
X158596100Y-133756054D01*
X158820212Y-133663224D01*
X159030289Y-133541936D01*
X159222738Y-133394265D01*
X159394265Y-133222738D01*
X159541936Y-133030289D01*
X159663224Y-132820212D01*
X159756054Y-132596100D01*
X159818838Y-132361789D01*
X159850500Y-132121288D01*
X159850500Y-131878712D01*
X159818838Y-131638211D01*
X159756054Y-131403900D01*
X159663224Y-131179788D01*
X159541936Y-130969711D01*
X159394265Y-130777262D01*
X159394260Y-130777256D01*
X159222743Y-130605739D01*
X159222736Y-130605733D01*
X159030293Y-130458067D01*
X159030292Y-130458066D01*
X159030289Y-130458064D01*
X158820212Y-130336776D01*
X158820205Y-130336773D01*
X158596104Y-130243947D01*
X158361785Y-130181161D01*
X158121289Y-130149500D01*
X158121288Y-130149500D01*
X157878712Y-130149500D01*
X157878711Y-130149500D01*
X157638214Y-130181161D01*
X157403895Y-130243947D01*
X157179794Y-130336773D01*
X157179785Y-130336777D01*
X156969706Y-130458067D01*
X156777263Y-130605733D01*
X156777256Y-130605739D01*
X156605739Y-130777256D01*
X156605733Y-130777263D01*
X156458067Y-130969706D01*
X156336777Y-131179785D01*
X156336773Y-131179794D01*
X156243947Y-131403895D01*
X156181161Y-131638214D01*
X156149500Y-131878711D01*
X72850500Y-131878711D01*
X72818838Y-131638211D01*
X72756054Y-131403900D01*
X72663224Y-131179788D01*
X72541936Y-130969711D01*
X72394265Y-130777262D01*
X72394260Y-130777256D01*
X72222743Y-130605739D01*
X72222736Y-130605733D01*
X72030293Y-130458067D01*
X72030292Y-130458066D01*
X72030289Y-130458064D01*
X71820212Y-130336776D01*
X71820205Y-130336773D01*
X71596104Y-130243947D01*
X71361785Y-130181161D01*
X71121289Y-130149500D01*
X71121288Y-130149500D01*
X70878712Y-130149500D01*
X70878711Y-130149500D01*
X70638214Y-130181161D01*
X70403895Y-130243947D01*
X70179794Y-130336773D01*
X70179785Y-130336777D01*
X69969706Y-130458067D01*
X69777263Y-130605733D01*
X69777256Y-130605739D01*
X69605739Y-130777256D01*
X69605733Y-130777263D01*
X69458067Y-130969706D01*
X69336777Y-131179785D01*
X69336773Y-131179794D01*
X69243947Y-131403895D01*
X69181161Y-131638214D01*
X69149500Y-131878711D01*
X65500500Y-131878711D01*
X65500500Y-118079054D01*
X70599498Y-118079054D01*
X70640423Y-118231785D01*
X70669358Y-118281900D01*
X70669359Y-118281904D01*
X70669360Y-118281904D01*
X70719479Y-118368714D01*
X70719481Y-118368717D01*
X70838349Y-118487585D01*
X70838354Y-118487589D01*
X76497534Y-124146770D01*
X76497536Y-124146771D01*
X76497540Y-124146774D01*
X76628402Y-124222326D01*
X76634466Y-124225827D01*
X76787193Y-124266751D01*
X76787195Y-124266751D01*
X76952904Y-124266751D01*
X76952920Y-124266750D01*
X80386154Y-124266750D01*
X80453193Y-124286435D01*
X80498948Y-124339239D01*
X80500715Y-124343298D01*
X80541650Y-124442126D01*
X80541657Y-124442140D01*
X80656392Y-124640867D01*
X80796081Y-124822911D01*
X80796089Y-124822920D01*
X80842238Y-124869069D01*
X80875723Y-124930392D01*
X80870739Y-125000084D01*
X80828867Y-125056017D01*
X80763403Y-125080434D01*
X80757967Y-125080628D01*
X80756423Y-125080749D01*
X80581443Y-125108464D01*
X80412960Y-125163206D01*
X80412957Y-125163207D01*
X80255109Y-125243636D01*
X80173338Y-125303046D01*
X80111786Y-125347767D01*
X80111784Y-125347769D01*
X80111783Y-125347769D01*
X79986519Y-125473033D01*
X79986519Y-125473034D01*
X79986517Y-125473036D01*
X79941796Y-125534588D01*
X79882386Y-125616359D01*
X79801957Y-125774207D01*
X79801956Y-125774210D01*
X79747214Y-125942693D01*
X79719500Y-126117671D01*
X79719500Y-126294828D01*
X79747214Y-126469806D01*
X79801956Y-126638289D01*
X79801957Y-126638292D01*
X79882386Y-126796140D01*
X79986517Y-126939464D01*
X80111786Y-127064733D01*
X80255110Y-127168864D01*
X80323577Y-127203750D01*
X80412957Y-127249292D01*
X80412960Y-127249293D01*
X80497201Y-127276664D01*
X80581445Y-127304036D01*
X80756421Y-127331750D01*
X80756422Y-127331750D01*
X80933578Y-127331750D01*
X80933579Y-127331750D01*
X81108555Y-127304036D01*
X81277042Y-127249292D01*
X81434890Y-127168864D01*
X81578214Y-127064733D01*
X81703483Y-126939464D01*
X81807614Y-126796140D01*
X81888042Y-126638292D01*
X81942786Y-126469805D01*
X81970500Y-126294829D01*
X81970500Y-126117671D01*
X81961165Y-126058736D01*
X83674500Y-126058736D01*
X83674500Y-126353763D01*
X83689778Y-126469805D01*
X83713007Y-126646243D01*
X83789361Y-126931201D01*
X83789364Y-126931211D01*
X83902254Y-127203750D01*
X83902258Y-127203760D01*
X84049761Y-127459243D01*
X84229352Y-127693290D01*
X84229358Y-127693297D01*
X84437952Y-127901891D01*
X84437959Y-127901897D01*
X84672006Y-128081488D01*
X84927489Y-128228991D01*
X84927490Y-128228991D01*
X84927493Y-128228993D01*
X85200048Y-128341889D01*
X85485007Y-128418243D01*
X85777494Y-128456750D01*
X85777501Y-128456750D01*
X86072499Y-128456750D01*
X86072506Y-128456750D01*
X86364993Y-128418243D01*
X86649952Y-128341889D01*
X86922507Y-128228993D01*
X87177994Y-128081488D01*
X87412042Y-127901896D01*
X87620646Y-127693292D01*
X87800238Y-127459244D01*
X87947743Y-127203757D01*
X88060639Y-126931202D01*
X88136993Y-126646243D01*
X88175500Y-126353756D01*
X88175500Y-126117671D01*
X89879500Y-126117671D01*
X89879500Y-126294828D01*
X89907214Y-126469806D01*
X89961956Y-126638289D01*
X89961957Y-126638292D01*
X90042386Y-126796140D01*
X90146517Y-126939464D01*
X90271786Y-127064733D01*
X90415110Y-127168864D01*
X90483577Y-127203750D01*
X90572957Y-127249292D01*
X90572960Y-127249293D01*
X90657201Y-127276664D01*
X90741445Y-127304036D01*
X90916421Y-127331750D01*
X90916422Y-127331750D01*
X91093578Y-127331750D01*
X91093579Y-127331750D01*
X91268555Y-127304036D01*
X91437042Y-127249292D01*
X91594890Y-127168864D01*
X91738214Y-127064733D01*
X91863483Y-126939464D01*
X91967614Y-126796140D01*
X92048042Y-126638292D01*
X92102786Y-126469805D01*
X92130500Y-126294829D01*
X92130500Y-126117671D01*
X92102786Y-125942695D01*
X92048042Y-125774208D01*
X92048042Y-125774207D01*
X91967613Y-125616359D01*
X91956518Y-125601088D01*
X91863483Y-125473036D01*
X91738214Y-125347767D01*
X91594890Y-125243636D01*
X91586953Y-125239592D01*
X91437042Y-125163207D01*
X91437039Y-125163206D01*
X91268556Y-125108464D01*
X91181067Y-125094607D01*
X91093579Y-125080750D01*
X90916421Y-125080750D01*
X90858095Y-125089988D01*
X90741443Y-125108464D01*
X90572960Y-125163206D01*
X90572957Y-125163207D01*
X90415109Y-125243636D01*
X90333338Y-125303046D01*
X90271786Y-125347767D01*
X90271784Y-125347769D01*
X90271783Y-125347769D01*
X90146519Y-125473033D01*
X90146519Y-125473034D01*
X90146517Y-125473036D01*
X90101796Y-125534588D01*
X90042386Y-125616359D01*
X89961957Y-125774207D01*
X89961956Y-125774210D01*
X89907214Y-125942693D01*
X89879500Y-126117671D01*
X88175500Y-126117671D01*
X88175500Y-126058744D01*
X88136993Y-125766257D01*
X88060639Y-125481298D01*
X87947743Y-125208743D01*
X87921453Y-125163208D01*
X87800238Y-124953256D01*
X87620647Y-124719209D01*
X87620641Y-124719202D01*
X87412047Y-124510608D01*
X87412040Y-124510602D01*
X87177993Y-124331011D01*
X86922510Y-124183508D01*
X86922500Y-124183504D01*
X86649961Y-124070614D01*
X86649954Y-124070612D01*
X86649952Y-124070611D01*
X86364993Y-123994257D01*
X86316113Y-123987821D01*
X86072513Y-123955750D01*
X86072506Y-123955750D01*
X85777494Y-123955750D01*
X85777486Y-123955750D01*
X85499085Y-123992403D01*
X85485007Y-123994257D01*
X85216294Y-124066258D01*
X85200048Y-124070611D01*
X85200038Y-124070614D01*
X84927499Y-124183504D01*
X84927489Y-124183508D01*
X84672006Y-124331011D01*
X84437959Y-124510602D01*
X84437952Y-124510608D01*
X84229358Y-124719202D01*
X84229352Y-124719209D01*
X84049761Y-124953256D01*
X83902258Y-125208739D01*
X83902254Y-125208749D01*
X83789364Y-125481288D01*
X83789361Y-125481298D01*
X83753172Y-125616360D01*
X83713008Y-125766254D01*
X83713006Y-125766265D01*
X83674500Y-126058736D01*
X81961165Y-126058736D01*
X81942786Y-125942695D01*
X81888042Y-125774208D01*
X81888042Y-125774207D01*
X81807613Y-125616359D01*
X81796518Y-125601088D01*
X81773038Y-125535282D01*
X81788863Y-125467228D01*
X81838968Y-125418533D01*
X81907446Y-125404657D01*
X81912977Y-125405258D01*
X82000266Y-125416750D01*
X82000273Y-125416750D01*
X82229727Y-125416750D01*
X82229734Y-125416750D01*
X82457238Y-125386798D01*
X82678887Y-125327408D01*
X82890888Y-125239594D01*
X83089612Y-125124861D01*
X83271661Y-124985169D01*
X83271665Y-124985164D01*
X83271670Y-124985161D01*
X83433911Y-124822920D01*
X83433914Y-124822915D01*
X83433919Y-124822911D01*
X83573611Y-124640862D01*
X83688344Y-124442138D01*
X83776158Y-124230137D01*
X83835548Y-124008488D01*
X83865500Y-123780984D01*
X83865500Y-123551516D01*
X83835548Y-123324012D01*
X83776158Y-123102363D01*
X83703510Y-122926975D01*
X83688349Y-122890373D01*
X83688346Y-122890367D01*
X83688344Y-122890362D01*
X83573611Y-122691638D01*
X83433919Y-122509589D01*
X83433918Y-122509588D01*
X83433911Y-122509580D01*
X83271670Y-122347339D01*
X83271661Y-122347331D01*
X83089617Y-122207642D01*
X82890890Y-122092907D01*
X82890876Y-122092900D01*
X82678887Y-122005092D01*
X82676461Y-122004442D01*
X82457238Y-121945702D01*
X82419215Y-121940696D01*
X82229741Y-121915750D01*
X82229734Y-121915750D01*
X82000266Y-121915750D01*
X82000258Y-121915750D01*
X81783715Y-121944259D01*
X81772762Y-121945702D01*
X81679076Y-121970804D01*
X81551112Y-122005092D01*
X81339123Y-122092900D01*
X81339109Y-122092907D01*
X81140382Y-122207642D01*
X80958338Y-122347331D01*
X80796081Y-122509588D01*
X80656392Y-122691632D01*
X80541657Y-122890359D01*
X80541650Y-122890373D01*
X80500715Y-122989202D01*
X80456875Y-123043606D01*
X80390580Y-123065671D01*
X80386154Y-123065750D01*
X77166348Y-123065750D01*
X77099309Y-123046065D01*
X77078667Y-123029431D01*
X75060791Y-121011555D01*
X86715000Y-121011555D01*
X86715000Y-121240944D01*
X86715001Y-121240960D01*
X86744942Y-121468387D01*
X86804318Y-121689980D01*
X86892102Y-121901909D01*
X86892106Y-121901919D01*
X87006799Y-122100574D01*
X87006805Y-122100581D01*
X87063381Y-122174314D01*
X87787421Y-121450274D01*
X87800359Y-121481508D01*
X87882437Y-121604347D01*
X87986903Y-121708813D01*
X88109742Y-121790891D01*
X88140974Y-121803828D01*
X87416934Y-122527867D01*
X87416934Y-122527868D01*
X87490666Y-122584444D01*
X87689330Y-122699143D01*
X87689340Y-122699147D01*
X87901269Y-122786931D01*
X88122862Y-122846307D01*
X88350289Y-122876248D01*
X88350306Y-122876250D01*
X88579694Y-122876250D01*
X88579710Y-122876248D01*
X88807137Y-122846307D01*
X89028730Y-122786931D01*
X89240659Y-122699147D01*
X89240668Y-122699143D01*
X89439327Y-122584447D01*
X89439334Y-122584442D01*
X89513064Y-122527867D01*
X88789025Y-121803828D01*
X88820258Y-121790891D01*
X88943097Y-121708813D01*
X89047563Y-121604347D01*
X89129641Y-121481508D01*
X89142578Y-121450275D01*
X89866617Y-122174314D01*
X89923192Y-122100584D01*
X89923197Y-122100577D01*
X90037893Y-121901918D01*
X90037897Y-121901909D01*
X90125681Y-121689980D01*
X90185057Y-121468387D01*
X90214998Y-121240960D01*
X90215000Y-121240944D01*
X90215000Y-121011555D01*
X90214998Y-121011539D01*
X90185057Y-120784112D01*
X90125681Y-120562519D01*
X90037897Y-120350590D01*
X90037893Y-120350580D01*
X89923194Y-120151916D01*
X89866618Y-120078184D01*
X89866617Y-120078184D01*
X89142577Y-120802223D01*
X89129641Y-120770992D01*
X89047563Y-120648153D01*
X88943097Y-120543687D01*
X88820258Y-120461609D01*
X88789023Y-120448671D01*
X89513064Y-119724631D01*
X89513064Y-119724630D01*
X89439331Y-119668055D01*
X89439324Y-119668049D01*
X89240669Y-119553356D01*
X89240659Y-119553352D01*
X89028730Y-119465568D01*
X88807137Y-119406192D01*
X88579710Y-119376251D01*
X88579694Y-119376250D01*
X88350306Y-119376250D01*
X88350289Y-119376251D01*
X88122862Y-119406192D01*
X87901269Y-119465568D01*
X87689340Y-119553352D01*
X87689330Y-119553356D01*
X87490673Y-119668051D01*
X87490659Y-119668060D01*
X87416934Y-119724630D01*
X88140975Y-120448671D01*
X88109742Y-120461609D01*
X87986903Y-120543687D01*
X87882437Y-120648153D01*
X87800359Y-120770992D01*
X87787421Y-120802224D01*
X87063381Y-120078184D01*
X87063380Y-120078184D01*
X87006810Y-120151909D01*
X87006801Y-120151923D01*
X86892106Y-120350580D01*
X86892102Y-120350590D01*
X86804318Y-120562519D01*
X86744942Y-120784112D01*
X86715001Y-121011539D01*
X86715000Y-121011555D01*
X75060791Y-121011555D01*
X71836819Y-117787583D01*
X71803334Y-117726260D01*
X71800500Y-117699902D01*
X71800500Y-99300097D01*
X71820185Y-99233058D01*
X71836819Y-99212416D01*
X91912416Y-79136819D01*
X91973739Y-79103334D01*
X92000097Y-79100500D01*
X106033270Y-79100500D01*
X106100309Y-79120185D01*
X106137191Y-79157866D01*
X106137349Y-79157752D01*
X106138127Y-79158823D01*
X106139000Y-79159715D01*
X106140210Y-79161690D01*
X106140213Y-79161694D01*
X106257019Y-79322464D01*
X106397536Y-79462981D01*
X106558306Y-79579787D01*
X106676832Y-79640179D01*
X106714780Y-79659515D01*
X106765576Y-79707490D01*
X106782371Y-79775311D01*
X106759833Y-79841446D01*
X106714780Y-79880485D01*
X106558305Y-79960213D01*
X106397533Y-80077021D01*
X106257021Y-80217533D01*
X106140213Y-80378305D01*
X106049994Y-80555367D01*
X106049993Y-80555370D01*
X105988587Y-80744362D01*
X105957500Y-80940639D01*
X105957500Y-81139360D01*
X105988587Y-81335637D01*
X106049993Y-81524629D01*
X106049994Y-81524632D01*
X106110002Y-81642402D01*
X106140213Y-81701694D01*
X106257019Y-81862464D01*
X106397536Y-82002981D01*
X106558306Y-82119787D01*
X106676832Y-82180179D01*
X106714780Y-82199515D01*
X106765576Y-82247490D01*
X106782371Y-82315311D01*
X106759833Y-82381446D01*
X106714780Y-82420485D01*
X106558305Y-82500213D01*
X106397533Y-82617021D01*
X106257021Y-82757533D01*
X106140213Y-82918305D01*
X106049994Y-83095367D01*
X106049993Y-83095370D01*
X105988587Y-83284362D01*
X105957500Y-83480639D01*
X105957500Y-83679360D01*
X105988587Y-83875637D01*
X106049993Y-84064629D01*
X106049994Y-84064632D01*
X106140213Y-84241694D01*
X106257019Y-84402464D01*
X106397536Y-84542981D01*
X106558306Y-84659787D01*
X106676832Y-84720179D01*
X106714780Y-84739515D01*
X106765576Y-84787490D01*
X106782371Y-84855311D01*
X106759833Y-84921446D01*
X106714780Y-84960485D01*
X106558305Y-85040213D01*
X106397533Y-85157021D01*
X106257021Y-85297533D01*
X106257021Y-85297534D01*
X106257019Y-85297536D01*
X106164973Y-85424225D01*
X106152506Y-85441386D01*
X106097176Y-85484051D01*
X106052188Y-85492500D01*
X89968194Y-85492500D01*
X89846970Y-85516613D01*
X89846960Y-85516616D01*
X89732773Y-85563913D01*
X89732761Y-85563920D01*
X89643768Y-85623383D01*
X89643769Y-85623384D01*
X89629987Y-85632592D01*
X76460860Y-98801719D01*
X76399537Y-98835204D01*
X76329845Y-98830220D01*
X76325757Y-98828611D01*
X76260833Y-98801719D01*
X76253890Y-98798843D01*
X76253888Y-98798842D01*
X76253887Y-98798842D01*
X76032238Y-98739452D01*
X75994215Y-98734446D01*
X75804741Y-98709500D01*
X75804734Y-98709500D01*
X75575266Y-98709500D01*
X75575258Y-98709500D01*
X75358715Y-98738009D01*
X75347762Y-98739452D01*
X75254076Y-98764554D01*
X75126112Y-98798842D01*
X74914123Y-98886650D01*
X74914109Y-98886657D01*
X74715382Y-99001392D01*
X74533338Y-99141081D01*
X74371081Y-99303338D01*
X74231392Y-99485382D01*
X74116657Y-99684109D01*
X74116650Y-99684123D01*
X74028842Y-99896112D01*
X74008488Y-99972075D01*
X73972688Y-100105687D01*
X73969453Y-100117759D01*
X73969451Y-100117770D01*
X73939500Y-100345258D01*
X73939500Y-100574741D01*
X73956418Y-100703240D01*
X73969452Y-100802238D01*
X74008488Y-100947924D01*
X74028842Y-101023887D01*
X74116650Y-101235876D01*
X74116657Y-101235890D01*
X74231392Y-101434617D01*
X74371081Y-101616661D01*
X74371089Y-101616670D01*
X74417238Y-101662819D01*
X74450723Y-101724142D01*
X74445739Y-101793834D01*
X74403867Y-101849767D01*
X74338403Y-101874184D01*
X74332967Y-101874378D01*
X74331423Y-101874499D01*
X74156443Y-101902214D01*
X73987960Y-101956956D01*
X73987957Y-101956957D01*
X73830109Y-102037386D01*
X73748338Y-102096796D01*
X73686786Y-102141517D01*
X73686784Y-102141519D01*
X73686783Y-102141519D01*
X73561519Y-102266783D01*
X73561519Y-102266784D01*
X73561517Y-102266786D01*
X73516796Y-102328338D01*
X73457386Y-102410109D01*
X73376957Y-102567957D01*
X73376956Y-102567960D01*
X73322214Y-102736443D01*
X73303833Y-102852494D01*
X73294500Y-102911421D01*
X73294500Y-103088579D01*
X73302424Y-103138606D01*
X73322214Y-103263556D01*
X73376956Y-103432039D01*
X73376957Y-103432042D01*
X73450208Y-103575802D01*
X73457386Y-103589890D01*
X73561517Y-103733214D01*
X73686786Y-103858483D01*
X73830110Y-103962614D01*
X73903484Y-104000000D01*
X73987957Y-104043042D01*
X73987960Y-104043043D01*
X74072201Y-104070414D01*
X74156445Y-104097786D01*
X74331421Y-104125500D01*
X74331422Y-104125500D01*
X74508578Y-104125500D01*
X74508579Y-104125500D01*
X74683555Y-104097786D01*
X74852042Y-104043042D01*
X75009890Y-103962614D01*
X75153214Y-103858483D01*
X75278483Y-103733214D01*
X75382614Y-103589890D01*
X75463042Y-103432042D01*
X75517786Y-103263555D01*
X75545500Y-103088579D01*
X75545500Y-102911421D01*
X75536165Y-102852486D01*
X77249500Y-102852486D01*
X77249500Y-103147513D01*
X77276727Y-103354312D01*
X77288007Y-103439993D01*
X77341813Y-103640800D01*
X77364361Y-103724951D01*
X77364364Y-103724961D01*
X77477254Y-103997500D01*
X77477258Y-103997510D01*
X77624761Y-104252993D01*
X77804352Y-104487040D01*
X77804358Y-104487047D01*
X78012952Y-104695641D01*
X78012959Y-104695647D01*
X78247006Y-104875238D01*
X78502489Y-105022741D01*
X78502490Y-105022741D01*
X78502493Y-105022743D01*
X78775048Y-105135639D01*
X79060007Y-105211993D01*
X79352494Y-105250500D01*
X79352501Y-105250500D01*
X79647499Y-105250500D01*
X79647506Y-105250500D01*
X79939993Y-105211993D01*
X80224952Y-105135639D01*
X80497507Y-105022743D01*
X80752994Y-104875238D01*
X80987042Y-104695646D01*
X81195646Y-104487042D01*
X81375238Y-104252994D01*
X81522743Y-103997507D01*
X81635639Y-103724952D01*
X81711993Y-103439993D01*
X81750500Y-103147506D01*
X81750500Y-102911421D01*
X83454500Y-102911421D01*
X83454500Y-103088579D01*
X83462424Y-103138606D01*
X83482214Y-103263556D01*
X83536956Y-103432039D01*
X83536957Y-103432042D01*
X83610208Y-103575802D01*
X83617386Y-103589890D01*
X83721517Y-103733214D01*
X83846786Y-103858483D01*
X83990110Y-103962614D01*
X84063484Y-104000000D01*
X84147957Y-104043042D01*
X84147960Y-104043043D01*
X84232201Y-104070414D01*
X84316445Y-104097786D01*
X84491421Y-104125500D01*
X84491422Y-104125500D01*
X84668578Y-104125500D01*
X84668579Y-104125500D01*
X84843555Y-104097786D01*
X85012042Y-104043042D01*
X85169890Y-103962614D01*
X85313214Y-103858483D01*
X85438483Y-103733214D01*
X85542614Y-103589890D01*
X85623042Y-103432042D01*
X85677786Y-103263555D01*
X85705500Y-103088579D01*
X85705500Y-102911421D01*
X85677786Y-102736445D01*
X85623042Y-102567958D01*
X85623042Y-102567957D01*
X85582061Y-102487529D01*
X85542614Y-102410110D01*
X85438483Y-102266786D01*
X85313214Y-102141517D01*
X85169890Y-102037386D01*
X85161953Y-102033342D01*
X85012042Y-101956957D01*
X85012039Y-101956956D01*
X84843556Y-101902214D01*
X84756067Y-101888357D01*
X84668579Y-101874500D01*
X84491421Y-101874500D01*
X84433095Y-101883738D01*
X84316443Y-101902214D01*
X84147960Y-101956956D01*
X84147957Y-101956957D01*
X83990109Y-102037386D01*
X83908338Y-102096796D01*
X83846786Y-102141517D01*
X83846784Y-102141519D01*
X83846783Y-102141519D01*
X83721519Y-102266783D01*
X83721519Y-102266784D01*
X83721517Y-102266786D01*
X83676796Y-102328338D01*
X83617386Y-102410109D01*
X83536957Y-102567957D01*
X83536956Y-102567960D01*
X83482214Y-102736443D01*
X83463833Y-102852494D01*
X83454500Y-102911421D01*
X81750500Y-102911421D01*
X81750500Y-102852494D01*
X81711993Y-102560007D01*
X81635639Y-102275048D01*
X81522743Y-102002493D01*
X81521592Y-102000500D01*
X81375238Y-101747006D01*
X81195647Y-101512959D01*
X81195641Y-101512952D01*
X80987047Y-101304358D01*
X80987040Y-101304352D01*
X80752993Y-101124761D01*
X80497510Y-100977258D01*
X80497500Y-100977254D01*
X80224961Y-100864364D01*
X80224954Y-100864362D01*
X80224952Y-100864361D01*
X79939993Y-100788007D01*
X79891113Y-100781571D01*
X79647513Y-100749500D01*
X79647506Y-100749500D01*
X79352494Y-100749500D01*
X79352486Y-100749500D01*
X79074085Y-100786153D01*
X79060007Y-100788007D01*
X78961835Y-100814312D01*
X78775048Y-100864361D01*
X78775038Y-100864364D01*
X78502499Y-100977254D01*
X78502489Y-100977258D01*
X78247006Y-101124761D01*
X78012959Y-101304352D01*
X78012952Y-101304358D01*
X77804358Y-101512952D01*
X77804352Y-101512959D01*
X77624761Y-101747006D01*
X77477258Y-102002489D01*
X77477254Y-102002499D01*
X77364364Y-102275038D01*
X77364361Y-102275048D01*
X77294956Y-102534075D01*
X77288008Y-102560004D01*
X77288006Y-102560015D01*
X77249500Y-102852486D01*
X75536165Y-102852486D01*
X75517786Y-102736445D01*
X75463042Y-102567958D01*
X75463042Y-102567957D01*
X75422061Y-102487529D01*
X75382614Y-102410110D01*
X75371517Y-102394837D01*
X75348038Y-102329032D01*
X75363863Y-102260978D01*
X75413968Y-102212283D01*
X75482446Y-102198407D01*
X75487977Y-102199008D01*
X75575266Y-102210500D01*
X75575273Y-102210500D01*
X75804727Y-102210500D01*
X75804734Y-102210500D01*
X76032238Y-102180548D01*
X76253887Y-102121158D01*
X76465888Y-102033344D01*
X76664612Y-101918611D01*
X76846661Y-101778919D01*
X76846665Y-101778914D01*
X76846670Y-101778911D01*
X77008911Y-101616670D01*
X77008914Y-101616665D01*
X77008919Y-101616661D01*
X77148611Y-101434612D01*
X77263344Y-101235888D01*
X77351158Y-101023887D01*
X77410548Y-100802238D01*
X77440500Y-100574734D01*
X77440500Y-100345266D01*
X77410548Y-100117762D01*
X77351158Y-99896113D01*
X77321399Y-99824271D01*
X77313930Y-99754804D01*
X77345204Y-99692324D01*
X77348251Y-99689166D01*
X79232112Y-97805305D01*
X80290000Y-97805305D01*
X80290000Y-98034694D01*
X80290001Y-98034710D01*
X80319942Y-98262137D01*
X80379318Y-98483730D01*
X80467102Y-98695659D01*
X80467106Y-98695669D01*
X80581799Y-98894324D01*
X80581805Y-98894331D01*
X80638381Y-98968064D01*
X81362421Y-98244024D01*
X81375359Y-98275258D01*
X81457437Y-98398097D01*
X81561903Y-98502563D01*
X81684742Y-98584641D01*
X81715974Y-98597578D01*
X80991934Y-99321617D01*
X80991934Y-99321618D01*
X81065666Y-99378194D01*
X81264330Y-99492893D01*
X81264340Y-99492897D01*
X81476269Y-99580681D01*
X81697862Y-99640057D01*
X81925289Y-99669998D01*
X81925306Y-99670000D01*
X82154694Y-99670000D01*
X82154710Y-99669998D01*
X82382137Y-99640057D01*
X82603730Y-99580681D01*
X82815659Y-99492897D01*
X82815668Y-99492893D01*
X83014327Y-99378197D01*
X83014334Y-99378192D01*
X83088064Y-99321617D01*
X82861960Y-99095513D01*
X94549500Y-99095513D01*
X94549500Y-99284486D01*
X94579059Y-99471118D01*
X94637454Y-99650836D01*
X94686822Y-99747725D01*
X94723240Y-99819199D01*
X94834310Y-99972073D01*
X94967927Y-100105690D01*
X95120801Y-100216760D01*
X95200347Y-100257290D01*
X95289163Y-100302545D01*
X95289165Y-100302545D01*
X95289168Y-100302547D01*
X95378734Y-100331649D01*
X95410803Y-100342069D01*
X95468478Y-100381507D01*
X95495676Y-100445866D01*
X95483761Y-100514712D01*
X95436516Y-100566188D01*
X95410803Y-100577931D01*
X95289163Y-100617454D01*
X95120800Y-100703240D01*
X95057130Y-100749500D01*
X94967927Y-100814310D01*
X94967925Y-100814312D01*
X94967924Y-100814312D01*
X94834312Y-100947924D01*
X94834312Y-100947925D01*
X94834310Y-100947927D01*
X94813000Y-100977258D01*
X94723240Y-101100800D01*
X94637454Y-101269163D01*
X94579059Y-101448881D01*
X94549500Y-101635513D01*
X94549500Y-101824486D01*
X94579059Y-102011118D01*
X94637454Y-102190836D01*
X94680363Y-102275048D01*
X94723240Y-102359199D01*
X94834310Y-102512073D01*
X94967927Y-102645690D01*
X95120801Y-102756760D01*
X95200347Y-102797290D01*
X95289163Y-102842545D01*
X95289165Y-102842545D01*
X95289168Y-102842547D01*
X95343132Y-102860081D01*
X95410803Y-102882069D01*
X95468478Y-102921507D01*
X95495676Y-102985866D01*
X95483761Y-103054712D01*
X95436516Y-103106188D01*
X95410803Y-103117931D01*
X95289163Y-103157454D01*
X95120800Y-103243240D01*
X95038510Y-103303028D01*
X94967927Y-103354310D01*
X94967925Y-103354312D01*
X94967924Y-103354312D01*
X94834312Y-103487924D01*
X94834312Y-103487925D01*
X94834310Y-103487927D01*
X94786610Y-103553579D01*
X94723240Y-103640800D01*
X94637454Y-103809163D01*
X94579059Y-103988881D01*
X94549500Y-104175513D01*
X94549500Y-104364486D01*
X94579059Y-104551118D01*
X94637454Y-104730836D01*
X94711031Y-104875238D01*
X94723240Y-104899199D01*
X94834310Y-105052073D01*
X94967927Y-105185690D01*
X95120801Y-105296760D01*
X95289168Y-105382547D01*
X95411612Y-105422331D01*
X95469287Y-105461769D01*
X95496485Y-105526127D01*
X95484570Y-105594974D01*
X95437326Y-105646449D01*
X95411612Y-105658193D01*
X95289361Y-105697915D01*
X95121060Y-105783669D01*
X95095670Y-105802116D01*
X95095669Y-105802116D01*
X95620591Y-106327037D01*
X95557007Y-106344075D01*
X95442993Y-106409901D01*
X95349901Y-106502993D01*
X95284075Y-106617007D01*
X95267037Y-106680590D01*
X94742116Y-106155669D01*
X94742116Y-106155670D01*
X94723669Y-106181060D01*
X94637914Y-106349362D01*
X94579548Y-106528997D01*
X94550000Y-106715552D01*
X94550000Y-106904447D01*
X94579548Y-107091002D01*
X94637914Y-107270637D01*
X94723666Y-107438933D01*
X94742116Y-107464328D01*
X95267037Y-106939408D01*
X95284075Y-107002993D01*
X95349901Y-107117007D01*
X95442993Y-107210099D01*
X95557007Y-107275925D01*
X95620590Y-107292962D01*
X95095669Y-107817882D01*
X95095670Y-107817883D01*
X95121059Y-107836329D01*
X95289362Y-107922085D01*
X95468997Y-107980451D01*
X95655553Y-108010000D01*
X95844447Y-108010000D01*
X96031002Y-107980451D01*
X96210637Y-107922085D01*
X96378937Y-107836331D01*
X96404328Y-107817883D01*
X96404328Y-107817882D01*
X95879409Y-107292962D01*
X95942993Y-107275925D01*
X96057007Y-107210099D01*
X96150099Y-107117007D01*
X96215925Y-107002993D01*
X96232962Y-106939408D01*
X96757882Y-107464328D01*
X96757883Y-107464328D01*
X96776331Y-107438937D01*
X96862085Y-107270637D01*
X96920451Y-107091002D01*
X96950000Y-106904447D01*
X96950000Y-106715552D01*
X96920451Y-106528997D01*
X96862085Y-106349362D01*
X96776329Y-106181059D01*
X96757883Y-106155670D01*
X96757882Y-106155669D01*
X96232962Y-106680590D01*
X96215925Y-106617007D01*
X96150099Y-106502993D01*
X96057007Y-106409901D01*
X95942993Y-106344075D01*
X95879409Y-106327037D01*
X96404328Y-105802116D01*
X96378933Y-105783666D01*
X96210637Y-105697914D01*
X96088388Y-105658193D01*
X96030712Y-105618755D01*
X96003514Y-105554397D01*
X96015429Y-105485550D01*
X96062673Y-105434075D01*
X96088382Y-105422333D01*
X96210832Y-105382547D01*
X96379199Y-105296760D01*
X96532073Y-105185690D01*
X96665690Y-105052073D01*
X96776760Y-104899199D01*
X96862547Y-104730832D01*
X96920940Y-104551118D01*
X96931089Y-104487040D01*
X96950500Y-104364486D01*
X96950500Y-104175513D01*
X96920940Y-103988881D01*
X96886165Y-103881857D01*
X96862547Y-103809168D01*
X96862545Y-103809165D01*
X96862545Y-103809163D01*
X96776759Y-103640800D01*
X96665690Y-103487927D01*
X96532073Y-103354310D01*
X96379199Y-103243240D01*
X96210836Y-103157454D01*
X96136472Y-103133291D01*
X96089195Y-103117930D01*
X96031521Y-103078493D01*
X96004323Y-103014134D01*
X96016238Y-102945288D01*
X96063482Y-102893812D01*
X96089194Y-102882069D01*
X96210832Y-102842547D01*
X96379199Y-102756760D01*
X96532073Y-102645690D01*
X96665690Y-102512073D01*
X96776760Y-102359199D01*
X96862547Y-102190832D01*
X96920940Y-102011118D01*
X96922622Y-102000500D01*
X96950500Y-101824486D01*
X96950500Y-101635513D01*
X96920940Y-101448881D01*
X96873981Y-101304358D01*
X96862547Y-101269168D01*
X96862545Y-101269165D01*
X96862545Y-101269163D01*
X96817290Y-101180347D01*
X96776760Y-101100801D01*
X96665690Y-100947927D01*
X96532073Y-100814310D01*
X96379199Y-100703240D01*
X96210836Y-100617454D01*
X96136472Y-100593291D01*
X96089195Y-100577930D01*
X96031521Y-100538493D01*
X96004323Y-100474134D01*
X96016238Y-100405288D01*
X96063482Y-100353812D01*
X96089194Y-100342069D01*
X96210832Y-100302547D01*
X96379199Y-100216760D01*
X96532073Y-100105690D01*
X96665690Y-99972073D01*
X96776760Y-99819199D01*
X96862547Y-99650832D01*
X96920940Y-99471118D01*
X96934785Y-99383706D01*
X96950500Y-99284486D01*
X96950500Y-99095513D01*
X96920940Y-98908881D01*
X96885186Y-98798843D01*
X96862547Y-98729168D01*
X96862545Y-98729165D01*
X96862545Y-98729163D01*
X96788907Y-98584641D01*
X96776760Y-98560801D01*
X96665690Y-98407927D01*
X96532073Y-98274310D01*
X96379199Y-98163240D01*
X96331168Y-98138767D01*
X96210836Y-98077454D01*
X96031118Y-98019059D01*
X95844486Y-97989500D01*
X95844481Y-97989500D01*
X95655519Y-97989500D01*
X95655514Y-97989500D01*
X95468881Y-98019059D01*
X95289163Y-98077454D01*
X95120800Y-98163240D01*
X95033579Y-98226610D01*
X94967927Y-98274310D01*
X94967925Y-98274312D01*
X94967924Y-98274312D01*
X94834312Y-98407924D01*
X94834312Y-98407925D01*
X94834310Y-98407927D01*
X94786610Y-98473579D01*
X94723240Y-98560800D01*
X94637454Y-98729163D01*
X94579059Y-98908881D01*
X94549500Y-99095513D01*
X82861960Y-99095513D01*
X82364025Y-98597578D01*
X82395258Y-98584641D01*
X82518097Y-98502563D01*
X82622563Y-98398097D01*
X82704641Y-98275258D01*
X82717578Y-98244025D01*
X83441617Y-98968064D01*
X83498192Y-98894334D01*
X83498197Y-98894327D01*
X83612893Y-98695668D01*
X83612897Y-98695659D01*
X83700681Y-98483730D01*
X83760057Y-98262137D01*
X83789998Y-98034710D01*
X83790000Y-98034694D01*
X83790000Y-97805305D01*
X83789998Y-97805289D01*
X83760057Y-97577862D01*
X83700681Y-97356269D01*
X83612897Y-97144340D01*
X83612893Y-97144330D01*
X83498194Y-96945666D01*
X83441618Y-96871934D01*
X83441617Y-96871934D01*
X82717577Y-97595973D01*
X82704641Y-97564742D01*
X82622563Y-97441903D01*
X82518097Y-97337437D01*
X82395258Y-97255359D01*
X82364023Y-97242421D01*
X83088064Y-96518381D01*
X83088064Y-96518380D01*
X83014331Y-96461805D01*
X83014324Y-96461799D01*
X82815669Y-96347106D01*
X82815659Y-96347102D01*
X82603730Y-96259318D01*
X82382137Y-96199942D01*
X82154710Y-96170001D01*
X82154694Y-96170000D01*
X81925306Y-96170000D01*
X81925289Y-96170001D01*
X81697862Y-96199942D01*
X81476269Y-96259318D01*
X81264340Y-96347102D01*
X81264330Y-96347106D01*
X81065673Y-96461801D01*
X81065659Y-96461810D01*
X80991934Y-96518380D01*
X81715975Y-97242421D01*
X81684742Y-97255359D01*
X81561903Y-97337437D01*
X81457437Y-97441903D01*
X81375359Y-97564742D01*
X81362421Y-97595975D01*
X80638380Y-96871934D01*
X80581810Y-96945659D01*
X80581801Y-96945673D01*
X80467106Y-97144330D01*
X80467102Y-97144340D01*
X80379318Y-97356269D01*
X80319942Y-97577862D01*
X80290001Y-97805289D01*
X80290000Y-97805305D01*
X79232112Y-97805305D01*
X90253600Y-86783819D01*
X90314923Y-86750334D01*
X90341281Y-86747500D01*
X106052188Y-86747500D01*
X106119227Y-86767185D01*
X106152506Y-86798614D01*
X106257019Y-86942464D01*
X106397536Y-87082981D01*
X106558306Y-87199787D01*
X106619500Y-87230967D01*
X106735367Y-87290005D01*
X106735370Y-87290006D01*
X106829866Y-87320709D01*
X106924364Y-87351413D01*
X107120639Y-87382500D01*
X107120640Y-87382500D01*
X107319360Y-87382500D01*
X107319361Y-87382500D01*
X107515636Y-87351413D01*
X107704632Y-87290005D01*
X107881694Y-87199787D01*
X108042464Y-87082981D01*
X108182981Y-86942464D01*
X108299787Y-86781694D01*
X108390005Y-86604632D01*
X108451413Y-86415636D01*
X108482500Y-86219361D01*
X108482500Y-86020639D01*
X108451413Y-85824364D01*
X108390005Y-85635368D01*
X108390005Y-85635367D01*
X108329997Y-85517596D01*
X108299787Y-85458306D01*
X108182981Y-85297536D01*
X108042464Y-85157019D01*
X107881694Y-85040213D01*
X107725218Y-84960484D01*
X107674423Y-84912510D01*
X107657628Y-84844689D01*
X107680165Y-84778554D01*
X107725218Y-84739515D01*
X107881694Y-84659787D01*
X108042464Y-84542981D01*
X108182981Y-84402464D01*
X108299787Y-84241694D01*
X108390005Y-84064632D01*
X108451413Y-83875636D01*
X108482500Y-83679361D01*
X108482500Y-83480639D01*
X108451413Y-83284364D01*
X108420709Y-83189866D01*
X108390006Y-83095370D01*
X108390005Y-83095367D01*
X108299786Y-82918305D01*
X108182981Y-82757536D01*
X108042464Y-82617019D01*
X107881694Y-82500213D01*
X107725218Y-82420484D01*
X107674423Y-82372510D01*
X107657628Y-82304689D01*
X107680165Y-82238554D01*
X107725218Y-82199515D01*
X107881694Y-82119787D01*
X108042464Y-82002981D01*
X108182981Y-81862464D01*
X108299787Y-81701694D01*
X108390005Y-81524632D01*
X108451413Y-81335636D01*
X108482500Y-81139361D01*
X108482500Y-80940639D01*
X108451413Y-80744364D01*
X108390005Y-80555368D01*
X108390005Y-80555367D01*
X108299786Y-80378305D01*
X108182981Y-80217536D01*
X108042464Y-80077019D01*
X107881694Y-79960213D01*
X107725218Y-79880484D01*
X107674423Y-79832510D01*
X107657628Y-79764689D01*
X107680165Y-79698554D01*
X107725218Y-79659515D01*
X107881694Y-79579787D01*
X108042464Y-79462981D01*
X108182981Y-79322464D01*
X108299787Y-79161694D01*
X108390005Y-78984632D01*
X108451413Y-78795636D01*
X108482500Y-78599361D01*
X108482500Y-78400639D01*
X108451413Y-78204364D01*
X108420709Y-78109866D01*
X108390006Y-78015370D01*
X108390005Y-78015367D01*
X108330967Y-77899500D01*
X108299787Y-77838306D01*
X108182981Y-77677536D01*
X108042464Y-77537019D01*
X107881694Y-77420213D01*
X107725218Y-77340484D01*
X107674423Y-77292510D01*
X107657628Y-77224689D01*
X107680165Y-77158554D01*
X107725218Y-77119515D01*
X107881694Y-77039787D01*
X108042464Y-76922981D01*
X108182981Y-76782464D01*
X108299787Y-76621694D01*
X108390005Y-76444632D01*
X108451413Y-76255636D01*
X108482500Y-76059361D01*
X108482500Y-75860639D01*
X108451413Y-75664364D01*
X108390005Y-75475368D01*
X108390003Y-75475363D01*
X108381052Y-75457796D01*
X108368155Y-75389127D01*
X108394431Y-75324386D01*
X108451537Y-75284129D01*
X108491536Y-75277500D01*
X121188464Y-75277500D01*
X121255503Y-75297185D01*
X121301258Y-75349989D01*
X121311202Y-75419147D01*
X121298948Y-75457796D01*
X121289996Y-75475363D01*
X121289993Y-75475370D01*
X121228587Y-75664362D01*
X121197500Y-75860639D01*
X121197500Y-76059360D01*
X121228587Y-76255637D01*
X121289993Y-76444629D01*
X121289994Y-76444632D01*
X121380213Y-76621694D01*
X121497019Y-76782464D01*
X121637536Y-76922981D01*
X121798306Y-77039787D01*
X121916832Y-77100179D01*
X121954780Y-77119515D01*
X122005576Y-77167490D01*
X122022371Y-77235311D01*
X121999833Y-77301446D01*
X121954780Y-77340485D01*
X121798305Y-77420213D01*
X121637533Y-77537021D01*
X121497021Y-77677533D01*
X121380213Y-77838305D01*
X121289994Y-78015367D01*
X121289993Y-78015370D01*
X121228587Y-78204362D01*
X121197602Y-78399992D01*
X121197500Y-78400639D01*
X121197500Y-78599361D01*
X121200288Y-78616965D01*
X121228587Y-78795637D01*
X121289993Y-78984629D01*
X121289994Y-78984632D01*
X121341096Y-79084923D01*
X121380213Y-79161694D01*
X121497019Y-79322464D01*
X121637536Y-79462981D01*
X121798306Y-79579787D01*
X121916832Y-79640179D01*
X121954780Y-79659515D01*
X122005576Y-79707490D01*
X122022371Y-79775311D01*
X121999833Y-79841446D01*
X121954780Y-79880485D01*
X121798305Y-79960213D01*
X121637533Y-80077021D01*
X121497021Y-80217533D01*
X121380213Y-80378305D01*
X121289994Y-80555367D01*
X121289993Y-80555370D01*
X121228587Y-80744362D01*
X121197500Y-80940639D01*
X121197500Y-81139361D01*
X121197499Y-81139361D01*
X121225314Y-81314979D01*
X121216359Y-81384272D01*
X121190522Y-81422057D01*
X118736945Y-83875636D01*
X118079992Y-84532589D01*
X118036289Y-84576292D01*
X117992586Y-84619994D01*
X117992585Y-84619996D01*
X117923233Y-84723789D01*
X117921586Y-84728393D01*
X117876614Y-84836964D01*
X117876612Y-84836972D01*
X117852500Y-84958192D01*
X117852500Y-115078719D01*
X117832815Y-115145758D01*
X117816181Y-115166400D01*
X109980150Y-123002431D01*
X109918827Y-123035916D01*
X109892469Y-123038750D01*
X108080806Y-123038750D01*
X108013767Y-123019065D01*
X107968012Y-122966261D01*
X107958068Y-122897103D01*
X107987093Y-122833547D01*
X108045871Y-122795773D01*
X108048712Y-122794975D01*
X108078730Y-122786931D01*
X108290659Y-122699147D01*
X108290668Y-122699143D01*
X108489327Y-122584447D01*
X108489334Y-122584442D01*
X108563064Y-122527867D01*
X107839025Y-121803828D01*
X107870258Y-121790891D01*
X107993097Y-121708813D01*
X108097563Y-121604347D01*
X108179641Y-121481508D01*
X108192578Y-121450275D01*
X108916617Y-122174314D01*
X108973192Y-122100584D01*
X108973197Y-122100577D01*
X109087893Y-121901918D01*
X109087897Y-121901909D01*
X109175681Y-121689980D01*
X109235057Y-121468387D01*
X109264998Y-121240960D01*
X109265000Y-121240944D01*
X109265000Y-121011555D01*
X109264998Y-121011539D01*
X109235057Y-120784112D01*
X109175681Y-120562519D01*
X109087897Y-120350590D01*
X109087893Y-120350580D01*
X108973194Y-120151916D01*
X108916618Y-120078184D01*
X108916617Y-120078184D01*
X108192577Y-120802223D01*
X108179641Y-120770992D01*
X108097563Y-120648153D01*
X107993097Y-120543687D01*
X107870258Y-120461609D01*
X107839023Y-120448671D01*
X108563064Y-119724631D01*
X108563064Y-119724630D01*
X108489331Y-119668055D01*
X108489324Y-119668049D01*
X108290669Y-119553356D01*
X108290659Y-119553352D01*
X108078730Y-119465568D01*
X107857137Y-119406192D01*
X107629710Y-119376251D01*
X107629694Y-119376250D01*
X107400306Y-119376250D01*
X107400289Y-119376251D01*
X107172862Y-119406192D01*
X106951269Y-119465568D01*
X106739340Y-119553352D01*
X106739330Y-119553356D01*
X106540673Y-119668051D01*
X106540659Y-119668060D01*
X106466934Y-119724630D01*
X107190975Y-120448671D01*
X107159742Y-120461609D01*
X107036903Y-120543687D01*
X106932437Y-120648153D01*
X106850359Y-120770992D01*
X106837421Y-120802225D01*
X106113380Y-120078184D01*
X106056810Y-120151909D01*
X106056801Y-120151923D01*
X105942106Y-120350580D01*
X105942102Y-120350590D01*
X105854318Y-120562519D01*
X105794942Y-120784112D01*
X105765001Y-121011539D01*
X105765000Y-121011555D01*
X105765000Y-121240944D01*
X105765001Y-121240960D01*
X105794942Y-121468387D01*
X105854318Y-121689980D01*
X105942102Y-121901909D01*
X105942106Y-121901919D01*
X106056799Y-122100574D01*
X106056805Y-122100581D01*
X106113381Y-122174314D01*
X106837421Y-121450274D01*
X106850359Y-121481508D01*
X106932437Y-121604347D01*
X107036903Y-121708813D01*
X107159742Y-121790891D01*
X107190974Y-121803828D01*
X106466934Y-122527867D01*
X106466934Y-122527868D01*
X106540666Y-122584444D01*
X106739330Y-122699143D01*
X106739340Y-122699147D01*
X106951269Y-122786931D01*
X106981288Y-122794975D01*
X107040948Y-122831340D01*
X107071477Y-122894188D01*
X107063182Y-122963563D01*
X107018697Y-123017441D01*
X106952144Y-123038715D01*
X106949194Y-123038750D01*
X102882663Y-123038750D01*
X102815624Y-123019065D01*
X102769869Y-122966261D01*
X102768103Y-122962204D01*
X102738344Y-122890362D01*
X102738339Y-122890353D01*
X102627946Y-122699147D01*
X102623611Y-122691638D01*
X102623608Y-122691635D01*
X102623607Y-122691632D01*
X102483918Y-122509588D01*
X102483911Y-122509580D01*
X102321670Y-122347339D01*
X102321661Y-122347331D01*
X102139617Y-122207642D01*
X101940890Y-122092907D01*
X101940876Y-122092900D01*
X101728887Y-122005092D01*
X101726461Y-122004442D01*
X101507238Y-121945702D01*
X101469215Y-121940696D01*
X101279741Y-121915750D01*
X101279734Y-121915750D01*
X101050266Y-121915750D01*
X101050258Y-121915750D01*
X100833715Y-121944259D01*
X100822762Y-121945702D01*
X100729076Y-121970804D01*
X100601112Y-122005092D01*
X100389123Y-122092900D01*
X100389109Y-122092907D01*
X100190382Y-122207642D01*
X100008338Y-122347331D01*
X99846081Y-122509588D01*
X99706392Y-122691632D01*
X99591657Y-122890359D01*
X99591650Y-122890373D01*
X99503842Y-123102362D01*
X99444453Y-123324009D01*
X99444451Y-123324020D01*
X99414500Y-123551508D01*
X99414500Y-123780991D01*
X99437509Y-123955750D01*
X99444452Y-124008488D01*
X99491347Y-124183504D01*
X99503842Y-124230137D01*
X99591650Y-124442126D01*
X99591657Y-124442140D01*
X99706392Y-124640867D01*
X99846081Y-124822911D01*
X99846089Y-124822920D01*
X99892238Y-124869069D01*
X99925723Y-124930392D01*
X99920739Y-125000084D01*
X99878867Y-125056017D01*
X99813403Y-125080434D01*
X99807967Y-125080628D01*
X99806423Y-125080749D01*
X99631443Y-125108464D01*
X99462960Y-125163206D01*
X99462957Y-125163207D01*
X99305109Y-125243636D01*
X99223338Y-125303046D01*
X99161786Y-125347767D01*
X99161784Y-125347769D01*
X99161783Y-125347769D01*
X99036519Y-125473033D01*
X99036519Y-125473034D01*
X99036517Y-125473036D01*
X98991796Y-125534588D01*
X98932386Y-125616359D01*
X98851957Y-125774207D01*
X98851956Y-125774210D01*
X98797214Y-125942693D01*
X98769500Y-126117671D01*
X98769500Y-126294828D01*
X98797214Y-126469806D01*
X98851956Y-126638289D01*
X98851957Y-126638292D01*
X98932386Y-126796140D01*
X99036517Y-126939464D01*
X99161786Y-127064733D01*
X99305110Y-127168864D01*
X99373577Y-127203750D01*
X99462957Y-127249292D01*
X99462960Y-127249293D01*
X99547201Y-127276664D01*
X99631445Y-127304036D01*
X99806421Y-127331750D01*
X99806422Y-127331750D01*
X99983578Y-127331750D01*
X99983579Y-127331750D01*
X100158555Y-127304036D01*
X100327042Y-127249292D01*
X100484890Y-127168864D01*
X100628214Y-127064733D01*
X100753483Y-126939464D01*
X100857614Y-126796140D01*
X100938042Y-126638292D01*
X100992786Y-126469805D01*
X101020500Y-126294829D01*
X101020500Y-126117671D01*
X100992786Y-125942695D01*
X100938042Y-125774208D01*
X100938042Y-125774207D01*
X100857613Y-125616359D01*
X100846518Y-125601088D01*
X100823038Y-125535282D01*
X100838863Y-125467228D01*
X100888968Y-125418533D01*
X100957446Y-125404657D01*
X100962977Y-125405258D01*
X101050266Y-125416750D01*
X101050273Y-125416750D01*
X101279727Y-125416750D01*
X101279734Y-125416750D01*
X101507238Y-125386798D01*
X101728887Y-125327408D01*
X101940888Y-125239594D01*
X102139612Y-125124861D01*
X102321661Y-124985169D01*
X102321665Y-124985164D01*
X102321670Y-124985161D01*
X102483911Y-124822920D01*
X102483914Y-124822915D01*
X102483919Y-124822911D01*
X102623611Y-124640862D01*
X102738344Y-124442138D01*
X102749014Y-124416378D01*
X102768103Y-124370296D01*
X102811944Y-124315893D01*
X102878239Y-124293829D01*
X102882663Y-124293750D01*
X103405772Y-124293750D01*
X103472811Y-124313435D01*
X103518566Y-124366239D01*
X103528510Y-124435397D01*
X103499485Y-124498953D01*
X103490792Y-124507697D01*
X103490828Y-124507733D01*
X103279358Y-124719202D01*
X103279352Y-124719209D01*
X103099761Y-124953256D01*
X102952258Y-125208739D01*
X102952254Y-125208749D01*
X102839364Y-125481288D01*
X102839361Y-125481298D01*
X102803172Y-125616360D01*
X102763008Y-125766254D01*
X102763006Y-125766265D01*
X102724500Y-126058736D01*
X102724500Y-126353763D01*
X102739778Y-126469805D01*
X102763007Y-126646243D01*
X102839361Y-126931201D01*
X102839364Y-126931211D01*
X102952254Y-127203750D01*
X102952258Y-127203760D01*
X103099761Y-127459243D01*
X103279352Y-127693290D01*
X103279358Y-127693297D01*
X103487952Y-127901891D01*
X103487959Y-127901897D01*
X103722006Y-128081488D01*
X103977489Y-128228991D01*
X103977490Y-128228991D01*
X103977493Y-128228993D01*
X104250048Y-128341889D01*
X104535007Y-128418243D01*
X104827494Y-128456750D01*
X104827501Y-128456750D01*
X105122499Y-128456750D01*
X105122506Y-128456750D01*
X105414993Y-128418243D01*
X105699952Y-128341889D01*
X105972507Y-128228993D01*
X106227994Y-128081488D01*
X106462042Y-127901896D01*
X106670646Y-127693292D01*
X106850238Y-127459244D01*
X106997743Y-127203757D01*
X107110639Y-126931202D01*
X107186993Y-126646243D01*
X107225500Y-126353756D01*
X107225500Y-126117671D01*
X108929500Y-126117671D01*
X108929500Y-126294828D01*
X108957214Y-126469806D01*
X109011956Y-126638289D01*
X109011957Y-126638292D01*
X109092386Y-126796140D01*
X109196517Y-126939464D01*
X109321786Y-127064733D01*
X109465110Y-127168864D01*
X109533577Y-127203750D01*
X109622957Y-127249292D01*
X109622960Y-127249293D01*
X109707201Y-127276664D01*
X109791445Y-127304036D01*
X109966421Y-127331750D01*
X109966422Y-127331750D01*
X110143578Y-127331750D01*
X110143579Y-127331750D01*
X110318555Y-127304036D01*
X110487042Y-127249292D01*
X110644890Y-127168864D01*
X110788214Y-127064733D01*
X110913483Y-126939464D01*
X111017614Y-126796140D01*
X111098042Y-126638292D01*
X111152786Y-126469805D01*
X111180500Y-126294829D01*
X111180500Y-126117671D01*
X111152786Y-125942695D01*
X111098042Y-125774208D01*
X111098042Y-125774207D01*
X111017613Y-125616359D01*
X111006518Y-125601088D01*
X110913483Y-125473036D01*
X110788214Y-125347767D01*
X110644890Y-125243636D01*
X110636953Y-125239592D01*
X110487042Y-125163207D01*
X110487039Y-125163206D01*
X110318556Y-125108464D01*
X110231067Y-125094607D01*
X110143579Y-125080750D01*
X109966421Y-125080750D01*
X109908095Y-125089988D01*
X109791443Y-125108464D01*
X109622960Y-125163206D01*
X109622957Y-125163207D01*
X109465109Y-125243636D01*
X109383338Y-125303046D01*
X109321786Y-125347767D01*
X109321784Y-125347769D01*
X109321783Y-125347769D01*
X109196519Y-125473033D01*
X109196519Y-125473034D01*
X109196517Y-125473036D01*
X109151796Y-125534588D01*
X109092386Y-125616359D01*
X109011957Y-125774207D01*
X109011956Y-125774210D01*
X108957214Y-125942693D01*
X108929500Y-126117671D01*
X107225500Y-126117671D01*
X107225500Y-126058744D01*
X107186993Y-125766257D01*
X107110639Y-125481298D01*
X106997743Y-125208743D01*
X106971453Y-125163208D01*
X106850238Y-124953256D01*
X106670647Y-124719209D01*
X106670641Y-124719202D01*
X106459172Y-124507733D01*
X106459930Y-124506974D01*
X106425046Y-124451978D01*
X106425460Y-124382109D01*
X106463583Y-124323557D01*
X106527310Y-124294910D01*
X106544228Y-124293750D01*
X110265554Y-124293750D01*
X110265555Y-124293749D01*
X110386785Y-124269636D01*
X110482142Y-124230137D01*
X110500983Y-124222333D01*
X110603758Y-124153661D01*
X110691161Y-124066258D01*
X118967411Y-115790008D01*
X119036083Y-115687233D01*
X119049937Y-115653784D01*
X119083386Y-115573035D01*
X119107500Y-115451803D01*
X119107500Y-115328197D01*
X119107500Y-85331280D01*
X119127185Y-85264241D01*
X119143814Y-85243604D01*
X120985819Y-83401598D01*
X121047142Y-83368114D01*
X121116834Y-83373098D01*
X121172767Y-83414970D01*
X121197184Y-83480434D01*
X121197500Y-83489280D01*
X121197500Y-83679360D01*
X121228586Y-83875636D01*
X121229131Y-83877903D01*
X121229086Y-83878790D01*
X121229349Y-83880448D01*
X121229000Y-83880503D01*
X121225638Y-83947685D01*
X121196237Y-83994526D01*
X119846286Y-85344478D01*
X119734481Y-85456282D01*
X119734475Y-85456290D01*
X119699081Y-85517596D01*
X119699081Y-85517598D01*
X119655423Y-85593214D01*
X119644872Y-85632590D01*
X119614499Y-85745943D01*
X119614499Y-85745945D01*
X119614499Y-85914046D01*
X119614500Y-85914059D01*
X119614500Y-121937403D01*
X119594815Y-122004442D01*
X119542011Y-122050197D01*
X119537963Y-122051959D01*
X119439112Y-122092906D01*
X119439109Y-122092907D01*
X119439101Y-122092911D01*
X119240382Y-122207642D01*
X119058338Y-122347331D01*
X118896081Y-122509588D01*
X118756392Y-122691632D01*
X118641657Y-122890359D01*
X118641650Y-122890373D01*
X118553842Y-123102362D01*
X118494453Y-123324009D01*
X118494451Y-123324020D01*
X118464500Y-123551508D01*
X118464500Y-123780991D01*
X118487509Y-123955750D01*
X118494452Y-124008488D01*
X118541347Y-124183504D01*
X118553842Y-124230137D01*
X118641650Y-124442126D01*
X118641657Y-124442140D01*
X118756392Y-124640867D01*
X118896081Y-124822911D01*
X118896089Y-124822920D01*
X118942238Y-124869069D01*
X118975723Y-124930392D01*
X118970739Y-125000084D01*
X118928867Y-125056017D01*
X118863403Y-125080434D01*
X118857967Y-125080628D01*
X118856423Y-125080749D01*
X118681443Y-125108464D01*
X118512960Y-125163206D01*
X118512957Y-125163207D01*
X118355109Y-125243636D01*
X118273338Y-125303046D01*
X118211786Y-125347767D01*
X118211784Y-125347769D01*
X118211783Y-125347769D01*
X118086519Y-125473033D01*
X118086519Y-125473034D01*
X118086517Y-125473036D01*
X118041796Y-125534588D01*
X117982386Y-125616359D01*
X117901957Y-125774207D01*
X117901956Y-125774210D01*
X117847214Y-125942693D01*
X117819500Y-126117671D01*
X117819500Y-126294828D01*
X117847214Y-126469806D01*
X117901956Y-126638289D01*
X117901957Y-126638292D01*
X117982386Y-126796140D01*
X118086517Y-126939464D01*
X118211786Y-127064733D01*
X118355110Y-127168864D01*
X118423577Y-127203750D01*
X118512957Y-127249292D01*
X118512960Y-127249293D01*
X118597201Y-127276664D01*
X118681445Y-127304036D01*
X118856421Y-127331750D01*
X118856422Y-127331750D01*
X119033578Y-127331750D01*
X119033579Y-127331750D01*
X119208555Y-127304036D01*
X119377042Y-127249292D01*
X119534890Y-127168864D01*
X119678214Y-127064733D01*
X119803483Y-126939464D01*
X119907614Y-126796140D01*
X119988042Y-126638292D01*
X120042786Y-126469805D01*
X120070500Y-126294829D01*
X120070500Y-126117671D01*
X120061165Y-126058736D01*
X121774500Y-126058736D01*
X121774500Y-126353763D01*
X121789778Y-126469805D01*
X121813007Y-126646243D01*
X121889361Y-126931201D01*
X121889364Y-126931211D01*
X122002254Y-127203750D01*
X122002258Y-127203760D01*
X122149761Y-127459243D01*
X122329352Y-127693290D01*
X122329358Y-127693297D01*
X122537952Y-127901891D01*
X122537959Y-127901897D01*
X122772006Y-128081488D01*
X123027489Y-128228991D01*
X123027490Y-128228991D01*
X123027493Y-128228993D01*
X123300048Y-128341889D01*
X123585007Y-128418243D01*
X123877494Y-128456750D01*
X123877501Y-128456750D01*
X124172499Y-128456750D01*
X124172506Y-128456750D01*
X124464993Y-128418243D01*
X124749952Y-128341889D01*
X125022507Y-128228993D01*
X125277994Y-128081488D01*
X125512042Y-127901896D01*
X125720646Y-127693292D01*
X125900238Y-127459244D01*
X126047743Y-127203757D01*
X126160639Y-126931202D01*
X126236993Y-126646243D01*
X126275500Y-126353756D01*
X126275500Y-126117671D01*
X127979500Y-126117671D01*
X127979500Y-126294828D01*
X128007214Y-126469806D01*
X128061956Y-126638289D01*
X128061957Y-126638292D01*
X128142386Y-126796140D01*
X128246517Y-126939464D01*
X128371786Y-127064733D01*
X128515110Y-127168864D01*
X128583577Y-127203750D01*
X128672957Y-127249292D01*
X128672960Y-127249293D01*
X128757201Y-127276664D01*
X128841445Y-127304036D01*
X129016421Y-127331750D01*
X129016422Y-127331750D01*
X129193578Y-127331750D01*
X129193579Y-127331750D01*
X129368555Y-127304036D01*
X129537042Y-127249292D01*
X129694890Y-127168864D01*
X129838214Y-127064733D01*
X129963483Y-126939464D01*
X130067614Y-126796140D01*
X130148042Y-126638292D01*
X130202786Y-126469805D01*
X130230500Y-126294829D01*
X130230500Y-126117671D01*
X130202786Y-125942695D01*
X130148042Y-125774208D01*
X130148042Y-125774207D01*
X130067613Y-125616359D01*
X130056518Y-125601088D01*
X129963483Y-125473036D01*
X129838214Y-125347767D01*
X129694890Y-125243636D01*
X129686953Y-125239592D01*
X129537042Y-125163207D01*
X129537039Y-125163206D01*
X129368556Y-125108464D01*
X129281067Y-125094607D01*
X129193579Y-125080750D01*
X129016421Y-125080750D01*
X128958095Y-125089988D01*
X128841443Y-125108464D01*
X128672960Y-125163206D01*
X128672957Y-125163207D01*
X128515109Y-125243636D01*
X128433338Y-125303046D01*
X128371786Y-125347767D01*
X128371784Y-125347769D01*
X128371783Y-125347769D01*
X128246519Y-125473033D01*
X128246519Y-125473034D01*
X128246517Y-125473036D01*
X128201796Y-125534588D01*
X128142386Y-125616359D01*
X128061957Y-125774207D01*
X128061956Y-125774210D01*
X128007214Y-125942693D01*
X127979500Y-126117671D01*
X126275500Y-126117671D01*
X126275500Y-126058744D01*
X126236993Y-125766257D01*
X126160639Y-125481298D01*
X126047743Y-125208743D01*
X126021453Y-125163208D01*
X125900238Y-124953256D01*
X125720647Y-124719209D01*
X125720641Y-124719202D01*
X125512047Y-124510608D01*
X125512040Y-124510602D01*
X125277993Y-124331011D01*
X125022510Y-124183508D01*
X125022500Y-124183504D01*
X124749961Y-124070614D01*
X124749954Y-124070612D01*
X124749952Y-124070611D01*
X124464993Y-123994257D01*
X124416113Y-123987821D01*
X124172513Y-123955750D01*
X124172506Y-123955750D01*
X123877494Y-123955750D01*
X123877486Y-123955750D01*
X123599085Y-123992403D01*
X123585007Y-123994257D01*
X123316294Y-124066258D01*
X123300048Y-124070611D01*
X123300038Y-124070614D01*
X123027499Y-124183504D01*
X123027489Y-124183508D01*
X122772006Y-124331011D01*
X122537959Y-124510602D01*
X122537952Y-124510608D01*
X122329358Y-124719202D01*
X122329352Y-124719209D01*
X122149761Y-124953256D01*
X122002258Y-125208739D01*
X122002254Y-125208749D01*
X121889364Y-125481288D01*
X121889361Y-125481298D01*
X121853172Y-125616360D01*
X121813008Y-125766254D01*
X121813006Y-125766265D01*
X121774500Y-126058736D01*
X120061165Y-126058736D01*
X120042786Y-125942695D01*
X119988042Y-125774208D01*
X119988042Y-125774207D01*
X119907613Y-125616359D01*
X119896518Y-125601088D01*
X119873038Y-125535282D01*
X119888863Y-125467228D01*
X119938968Y-125418533D01*
X120007446Y-125404657D01*
X120012977Y-125405258D01*
X120100266Y-125416750D01*
X120100273Y-125416750D01*
X120329727Y-125416750D01*
X120329734Y-125416750D01*
X120557238Y-125386798D01*
X120778887Y-125327408D01*
X120990888Y-125239594D01*
X121189612Y-125124861D01*
X121371661Y-124985169D01*
X121371665Y-124985164D01*
X121371670Y-124985161D01*
X121533911Y-124822920D01*
X121533914Y-124822915D01*
X121533919Y-124822911D01*
X121673611Y-124640862D01*
X121788344Y-124442138D01*
X121876158Y-124230137D01*
X121935548Y-124008488D01*
X121965500Y-123780984D01*
X121965500Y-123551516D01*
X121935548Y-123324012D01*
X121876158Y-123102363D01*
X121803510Y-122926975D01*
X121788349Y-122890373D01*
X121788346Y-122890367D01*
X121788344Y-122890362D01*
X121673611Y-122691638D01*
X121533919Y-122509589D01*
X121533918Y-122509588D01*
X121533911Y-122509580D01*
X121371670Y-122347339D01*
X121371661Y-122347331D01*
X121189617Y-122207642D01*
X120990898Y-122092911D01*
X120990893Y-122092909D01*
X120990888Y-122092906D01*
X120892045Y-122051963D01*
X120837643Y-122008122D01*
X120815579Y-121941827D01*
X120815500Y-121937403D01*
X120815500Y-121011555D01*
X124815000Y-121011555D01*
X124815000Y-121240944D01*
X124815001Y-121240960D01*
X124844942Y-121468387D01*
X124904318Y-121689980D01*
X124992102Y-121901909D01*
X124992106Y-121901919D01*
X125106799Y-122100574D01*
X125106805Y-122100581D01*
X125163381Y-122174314D01*
X125887421Y-121450274D01*
X125900359Y-121481508D01*
X125982437Y-121604347D01*
X126086903Y-121708813D01*
X126209742Y-121790891D01*
X126240974Y-121803828D01*
X125516934Y-122527867D01*
X125516934Y-122527868D01*
X125590666Y-122584444D01*
X125789330Y-122699143D01*
X125789340Y-122699147D01*
X126001269Y-122786931D01*
X126222862Y-122846307D01*
X126450289Y-122876248D01*
X126450306Y-122876250D01*
X126679694Y-122876250D01*
X126679710Y-122876248D01*
X126907137Y-122846307D01*
X127128730Y-122786931D01*
X127340659Y-122699147D01*
X127340668Y-122699143D01*
X127539327Y-122584447D01*
X127539334Y-122584442D01*
X127613064Y-122527867D01*
X126889025Y-121803828D01*
X126920258Y-121790891D01*
X127043097Y-121708813D01*
X127147563Y-121604347D01*
X127229641Y-121481508D01*
X127242578Y-121450275D01*
X127966617Y-122174314D01*
X128023192Y-122100584D01*
X128023197Y-122100577D01*
X128137893Y-121901918D01*
X128137897Y-121901909D01*
X128225681Y-121689980D01*
X128285057Y-121468387D01*
X128314998Y-121240960D01*
X128315000Y-121240944D01*
X128315000Y-121011555D01*
X128314998Y-121011539D01*
X128285057Y-120784112D01*
X128225681Y-120562519D01*
X128137897Y-120350590D01*
X128137893Y-120350580D01*
X128023194Y-120151916D01*
X127966618Y-120078184D01*
X127966617Y-120078184D01*
X127242577Y-120802223D01*
X127229641Y-120770992D01*
X127147563Y-120648153D01*
X127043097Y-120543687D01*
X126920258Y-120461609D01*
X126889023Y-120448671D01*
X127613064Y-119724631D01*
X127613064Y-119724630D01*
X127539331Y-119668055D01*
X127539324Y-119668049D01*
X127340669Y-119553356D01*
X127340659Y-119553352D01*
X127128730Y-119465568D01*
X126907137Y-119406192D01*
X126679710Y-119376251D01*
X126679694Y-119376250D01*
X126450306Y-119376250D01*
X126450289Y-119376251D01*
X126222862Y-119406192D01*
X126001269Y-119465568D01*
X125789340Y-119553352D01*
X125789330Y-119553356D01*
X125590673Y-119668051D01*
X125590659Y-119668060D01*
X125516934Y-119724630D01*
X126240975Y-120448671D01*
X126209742Y-120461609D01*
X126086903Y-120543687D01*
X125982437Y-120648153D01*
X125900359Y-120770992D01*
X125887421Y-120802225D01*
X125163380Y-120078184D01*
X125106810Y-120151909D01*
X125106801Y-120151923D01*
X124992106Y-120350580D01*
X124992102Y-120350590D01*
X124904318Y-120562519D01*
X124844942Y-120784112D01*
X124815001Y-121011539D01*
X124815000Y-121011555D01*
X120815500Y-121011555D01*
X120815500Y-86125096D01*
X120835185Y-86058057D01*
X120851815Y-86037419D01*
X120989543Y-85899691D01*
X121050865Y-85866207D01*
X121120557Y-85871191D01*
X121176490Y-85913063D01*
X121200907Y-85978527D01*
X121199697Y-86006767D01*
X121197500Y-86020641D01*
X121197500Y-86219360D01*
X121228587Y-86415637D01*
X121289993Y-86604629D01*
X121289994Y-86604632D01*
X121362790Y-86747500D01*
X121380213Y-86781694D01*
X121497019Y-86942464D01*
X121637536Y-87082981D01*
X121798305Y-87199786D01*
X121798309Y-87199789D01*
X121800285Y-87201000D01*
X121800878Y-87201656D01*
X121802248Y-87202651D01*
X121802039Y-87202938D01*
X121847163Y-87252810D01*
X121859500Y-87306730D01*
X121859500Y-106774580D01*
X121859499Y-106774598D01*
X121859499Y-106940304D01*
X121859498Y-106940304D01*
X121900422Y-107093032D01*
X121900424Y-107093037D01*
X121904288Y-107099729D01*
X121904289Y-107099731D01*
X121979477Y-107229962D01*
X121979481Y-107229967D01*
X122098349Y-107348835D01*
X122098355Y-107348840D01*
X137617903Y-122868388D01*
X137651388Y-122929711D01*
X137646404Y-122999403D01*
X137644783Y-123003522D01*
X137603845Y-123102353D01*
X137603842Y-123102363D01*
X137544453Y-123324009D01*
X137544451Y-123324020D01*
X137514500Y-123551508D01*
X137514500Y-123780991D01*
X137537509Y-123955750D01*
X137544452Y-124008488D01*
X137591347Y-124183504D01*
X137603842Y-124230137D01*
X137691650Y-124442126D01*
X137691657Y-124442140D01*
X137806392Y-124640867D01*
X137946081Y-124822911D01*
X137946089Y-124822920D01*
X137992238Y-124869069D01*
X138025723Y-124930392D01*
X138020739Y-125000084D01*
X137978867Y-125056017D01*
X137913403Y-125080434D01*
X137907967Y-125080628D01*
X137906423Y-125080749D01*
X137731443Y-125108464D01*
X137562960Y-125163206D01*
X137562957Y-125163207D01*
X137405109Y-125243636D01*
X137323338Y-125303046D01*
X137261786Y-125347767D01*
X137261784Y-125347769D01*
X137261783Y-125347769D01*
X137136519Y-125473033D01*
X137136519Y-125473034D01*
X137136517Y-125473036D01*
X137091796Y-125534588D01*
X137032386Y-125616359D01*
X136951957Y-125774207D01*
X136951956Y-125774210D01*
X136897214Y-125942693D01*
X136869500Y-126117671D01*
X136869500Y-126294828D01*
X136897214Y-126469806D01*
X136951956Y-126638289D01*
X136951957Y-126638292D01*
X137032386Y-126796140D01*
X137136517Y-126939464D01*
X137261786Y-127064733D01*
X137405110Y-127168864D01*
X137473577Y-127203750D01*
X137562957Y-127249292D01*
X137562960Y-127249293D01*
X137647201Y-127276664D01*
X137731445Y-127304036D01*
X137906421Y-127331750D01*
X137906422Y-127331750D01*
X138083578Y-127331750D01*
X138083579Y-127331750D01*
X138258555Y-127304036D01*
X138427042Y-127249292D01*
X138584890Y-127168864D01*
X138728214Y-127064733D01*
X138853483Y-126939464D01*
X138957614Y-126796140D01*
X139038042Y-126638292D01*
X139092786Y-126469805D01*
X139120500Y-126294829D01*
X139120500Y-126117671D01*
X139111165Y-126058736D01*
X140824500Y-126058736D01*
X140824500Y-126353763D01*
X140839778Y-126469805D01*
X140863007Y-126646243D01*
X140939361Y-126931201D01*
X140939364Y-126931211D01*
X141052254Y-127203750D01*
X141052258Y-127203760D01*
X141199761Y-127459243D01*
X141379352Y-127693290D01*
X141379358Y-127693297D01*
X141587952Y-127901891D01*
X141587959Y-127901897D01*
X141822006Y-128081488D01*
X142077489Y-128228991D01*
X142077490Y-128228991D01*
X142077493Y-128228993D01*
X142350048Y-128341889D01*
X142635007Y-128418243D01*
X142927494Y-128456750D01*
X142927501Y-128456750D01*
X143222499Y-128456750D01*
X143222506Y-128456750D01*
X143514993Y-128418243D01*
X143799952Y-128341889D01*
X144072507Y-128228993D01*
X144327994Y-128081488D01*
X144562042Y-127901896D01*
X144770646Y-127693292D01*
X144950238Y-127459244D01*
X145097743Y-127203757D01*
X145210639Y-126931202D01*
X145286993Y-126646243D01*
X145325500Y-126353756D01*
X145325500Y-126117671D01*
X147029500Y-126117671D01*
X147029500Y-126294828D01*
X147057214Y-126469806D01*
X147111956Y-126638289D01*
X147111957Y-126638292D01*
X147192386Y-126796140D01*
X147296517Y-126939464D01*
X147421786Y-127064733D01*
X147565110Y-127168864D01*
X147633577Y-127203750D01*
X147722957Y-127249292D01*
X147722960Y-127249293D01*
X147807201Y-127276664D01*
X147891445Y-127304036D01*
X148066421Y-127331750D01*
X148066422Y-127331750D01*
X148243578Y-127331750D01*
X148243579Y-127331750D01*
X148418555Y-127304036D01*
X148587042Y-127249292D01*
X148744890Y-127168864D01*
X148888214Y-127064733D01*
X149013483Y-126939464D01*
X149117614Y-126796140D01*
X149198042Y-126638292D01*
X149252786Y-126469805D01*
X149280500Y-126294829D01*
X149280500Y-126117671D01*
X149252786Y-125942695D01*
X149198042Y-125774208D01*
X149198042Y-125774207D01*
X149117613Y-125616359D01*
X149106518Y-125601088D01*
X149013483Y-125473036D01*
X148888214Y-125347767D01*
X148744890Y-125243636D01*
X148736953Y-125239592D01*
X148587042Y-125163207D01*
X148587039Y-125163206D01*
X148418556Y-125108464D01*
X148331067Y-125094607D01*
X148243579Y-125080750D01*
X148066421Y-125080750D01*
X148008095Y-125089988D01*
X147891443Y-125108464D01*
X147722960Y-125163206D01*
X147722957Y-125163207D01*
X147565109Y-125243636D01*
X147483338Y-125303046D01*
X147421786Y-125347767D01*
X147421784Y-125347769D01*
X147421783Y-125347769D01*
X147296519Y-125473033D01*
X147296519Y-125473034D01*
X147296517Y-125473036D01*
X147251796Y-125534588D01*
X147192386Y-125616359D01*
X147111957Y-125774207D01*
X147111956Y-125774210D01*
X147057214Y-125942693D01*
X147029500Y-126117671D01*
X145325500Y-126117671D01*
X145325500Y-126058744D01*
X145286993Y-125766257D01*
X145210639Y-125481298D01*
X145097743Y-125208743D01*
X145071453Y-125163208D01*
X144950238Y-124953256D01*
X144770647Y-124719209D01*
X144770641Y-124719202D01*
X144562047Y-124510608D01*
X144562040Y-124510602D01*
X144327993Y-124331011D01*
X144072510Y-124183508D01*
X144072500Y-124183504D01*
X143799961Y-124070614D01*
X143799954Y-124070612D01*
X143799952Y-124070611D01*
X143514993Y-123994257D01*
X143466113Y-123987821D01*
X143222513Y-123955750D01*
X143222506Y-123955750D01*
X142927494Y-123955750D01*
X142927486Y-123955750D01*
X142649085Y-123992403D01*
X142635007Y-123994257D01*
X142366294Y-124066258D01*
X142350048Y-124070611D01*
X142350038Y-124070614D01*
X142077499Y-124183504D01*
X142077489Y-124183508D01*
X141822006Y-124331011D01*
X141587959Y-124510602D01*
X141587952Y-124510608D01*
X141379358Y-124719202D01*
X141379352Y-124719209D01*
X141199761Y-124953256D01*
X141052258Y-125208739D01*
X141052254Y-125208749D01*
X140939364Y-125481288D01*
X140939361Y-125481298D01*
X140903172Y-125616360D01*
X140863008Y-125766254D01*
X140863006Y-125766265D01*
X140824500Y-126058736D01*
X139111165Y-126058736D01*
X139092786Y-125942695D01*
X139038042Y-125774208D01*
X139038042Y-125774207D01*
X138957613Y-125616359D01*
X138946518Y-125601088D01*
X138923038Y-125535282D01*
X138938863Y-125467228D01*
X138988968Y-125418533D01*
X139057446Y-125404657D01*
X139062977Y-125405258D01*
X139150266Y-125416750D01*
X139150273Y-125416750D01*
X139379727Y-125416750D01*
X139379734Y-125416750D01*
X139607238Y-125386798D01*
X139828887Y-125327408D01*
X140040888Y-125239594D01*
X140239612Y-125124861D01*
X140421661Y-124985169D01*
X140421665Y-124985164D01*
X140421670Y-124985161D01*
X140583911Y-124822920D01*
X140583914Y-124822915D01*
X140583919Y-124822911D01*
X140723611Y-124640862D01*
X140838344Y-124442138D01*
X140926158Y-124230137D01*
X140985548Y-124008488D01*
X141015500Y-123780984D01*
X141015500Y-123551516D01*
X140985548Y-123324012D01*
X140926158Y-123102363D01*
X140853510Y-122926975D01*
X140838349Y-122890373D01*
X140838346Y-122890367D01*
X140838344Y-122890362D01*
X140723611Y-122691638D01*
X140583919Y-122509589D01*
X140583918Y-122509588D01*
X140583911Y-122509580D01*
X140421670Y-122347339D01*
X140421661Y-122347331D01*
X140239617Y-122207642D01*
X140040890Y-122092907D01*
X140040876Y-122092900D01*
X139828887Y-122005092D01*
X139826461Y-122004442D01*
X139607238Y-121945702D01*
X139569215Y-121940696D01*
X139379741Y-121915750D01*
X139379734Y-121915750D01*
X139150266Y-121915750D01*
X139150258Y-121915750D01*
X138933715Y-121944259D01*
X138922762Y-121945702D01*
X138703539Y-122004442D01*
X138701113Y-122005092D01*
X138701103Y-122005095D01*
X138602272Y-122046033D01*
X138532802Y-122053502D01*
X138470323Y-122022227D01*
X138467138Y-122019153D01*
X137459540Y-121011555D01*
X143865000Y-121011555D01*
X143865000Y-121240944D01*
X143865001Y-121240960D01*
X143894942Y-121468387D01*
X143954318Y-121689980D01*
X144042102Y-121901909D01*
X144042106Y-121901919D01*
X144156799Y-122100574D01*
X144156805Y-122100581D01*
X144213381Y-122174314D01*
X144937421Y-121450274D01*
X144950359Y-121481508D01*
X145032437Y-121604347D01*
X145136903Y-121708813D01*
X145259742Y-121790891D01*
X145290974Y-121803828D01*
X144566934Y-122527867D01*
X144566934Y-122527868D01*
X144640666Y-122584444D01*
X144839330Y-122699143D01*
X144839340Y-122699147D01*
X145051269Y-122786931D01*
X145272862Y-122846307D01*
X145500289Y-122876248D01*
X145500306Y-122876250D01*
X145729694Y-122876250D01*
X145729710Y-122876248D01*
X145957137Y-122846307D01*
X146178730Y-122786931D01*
X146390659Y-122699147D01*
X146390668Y-122699143D01*
X146589327Y-122584447D01*
X146589334Y-122584442D01*
X146663064Y-122527867D01*
X145939025Y-121803828D01*
X145970258Y-121790891D01*
X146093097Y-121708813D01*
X146197563Y-121604347D01*
X146279641Y-121481508D01*
X146292578Y-121450275D01*
X147016617Y-122174314D01*
X147073192Y-122100584D01*
X147073197Y-122100577D01*
X147187893Y-121901918D01*
X147187897Y-121901909D01*
X147275681Y-121689980D01*
X147335057Y-121468387D01*
X147364998Y-121240960D01*
X147365000Y-121240944D01*
X147365000Y-121011555D01*
X147364998Y-121011539D01*
X147335057Y-120784112D01*
X147275681Y-120562519D01*
X147187897Y-120350590D01*
X147187893Y-120350580D01*
X147073194Y-120151916D01*
X147016618Y-120078184D01*
X147016617Y-120078184D01*
X146292577Y-120802223D01*
X146279641Y-120770992D01*
X146197563Y-120648153D01*
X146093097Y-120543687D01*
X145970258Y-120461609D01*
X145939023Y-120448671D01*
X146663064Y-119724631D01*
X146663064Y-119724630D01*
X146589331Y-119668055D01*
X146589324Y-119668049D01*
X146390669Y-119553356D01*
X146390659Y-119553352D01*
X146178730Y-119465568D01*
X145957137Y-119406192D01*
X145729710Y-119376251D01*
X145729694Y-119376250D01*
X145500306Y-119376250D01*
X145500289Y-119376251D01*
X145272862Y-119406192D01*
X145051269Y-119465568D01*
X144839340Y-119553352D01*
X144839330Y-119553356D01*
X144640673Y-119668051D01*
X144640659Y-119668060D01*
X144566934Y-119724630D01*
X145290975Y-120448671D01*
X145259742Y-120461609D01*
X145136903Y-120543687D01*
X145032437Y-120648153D01*
X144950359Y-120770992D01*
X144937421Y-120802225D01*
X144213380Y-120078184D01*
X144156810Y-120151909D01*
X144156801Y-120151923D01*
X144042106Y-120350580D01*
X144042102Y-120350590D01*
X143954318Y-120562519D01*
X143894942Y-120784112D01*
X143865001Y-121011539D01*
X143865000Y-121011555D01*
X137459540Y-121011555D01*
X123096819Y-106648834D01*
X123063334Y-106587511D01*
X123060500Y-106561153D01*
X123060500Y-105381947D01*
X141000000Y-105381947D01*
X141000000Y-105618052D01*
X141036934Y-105851247D01*
X141109897Y-106075802D01*
X141217087Y-106286174D01*
X141277338Y-106369104D01*
X141277340Y-106369105D01*
X142017037Y-105629408D01*
X142034075Y-105692993D01*
X142099901Y-105807007D01*
X142192993Y-105900099D01*
X142307007Y-105965925D01*
X142370590Y-105982962D01*
X141630893Y-106722658D01*
X141713828Y-106782914D01*
X141924197Y-106890102D01*
X142148752Y-106963065D01*
X142148751Y-106963065D01*
X142381948Y-107000000D01*
X142618052Y-107000000D01*
X142851247Y-106963065D01*
X143075802Y-106890102D01*
X143286163Y-106782918D01*
X143286169Y-106782914D01*
X143369104Y-106722658D01*
X143369105Y-106722658D01*
X142629408Y-105982962D01*
X142692993Y-105965925D01*
X142807007Y-105900099D01*
X142900099Y-105807007D01*
X142965925Y-105692993D01*
X142982962Y-105629409D01*
X143722658Y-106369105D01*
X143722658Y-106369104D01*
X143782914Y-106286169D01*
X143782918Y-106286163D01*
X143890102Y-106075802D01*
X143963065Y-105851247D01*
X144000000Y-105618052D01*
X144000000Y-105381947D01*
X143963065Y-105148752D01*
X143890102Y-104924197D01*
X143782914Y-104713828D01*
X143722658Y-104630894D01*
X143722658Y-104630893D01*
X142982962Y-105370590D01*
X142965925Y-105307007D01*
X142900099Y-105192993D01*
X142807007Y-105099901D01*
X142692993Y-105034075D01*
X142629409Y-105017037D01*
X143369105Y-104277340D01*
X143369104Y-104277338D01*
X143286174Y-104217087D01*
X143075802Y-104109897D01*
X142851247Y-104036934D01*
X142851248Y-104036934D01*
X142618052Y-104000000D01*
X142381948Y-104000000D01*
X142148752Y-104036934D01*
X141924197Y-104109897D01*
X141713830Y-104217084D01*
X141630894Y-104277340D01*
X142370591Y-105017037D01*
X142307007Y-105034075D01*
X142192993Y-105099901D01*
X142099901Y-105192993D01*
X142034075Y-105307007D01*
X142017037Y-105370591D01*
X141277340Y-104630894D01*
X141217084Y-104713830D01*
X141109897Y-104924197D01*
X141036934Y-105148752D01*
X141000000Y-105381947D01*
X123060500Y-105381947D01*
X123060500Y-87306730D01*
X123080185Y-87239691D01*
X123117866Y-87202808D01*
X123117752Y-87202651D01*
X123118823Y-87201872D01*
X123119715Y-87201000D01*
X123121690Y-87199789D01*
X123121689Y-87199789D01*
X123121694Y-87199787D01*
X123282464Y-87082981D01*
X123422981Y-86942464D01*
X123539787Y-86781694D01*
X123630005Y-86604632D01*
X123691413Y-86415636D01*
X123722500Y-86219361D01*
X123722500Y-86020639D01*
X123691413Y-85824364D01*
X123630005Y-85635368D01*
X123630005Y-85635367D01*
X123569997Y-85517596D01*
X123539787Y-85458306D01*
X123422981Y-85297536D01*
X123282464Y-85157019D01*
X123121694Y-85040213D01*
X122965218Y-84960484D01*
X122914423Y-84912510D01*
X122897628Y-84844689D01*
X122920165Y-84778554D01*
X122965218Y-84739515D01*
X123121694Y-84659787D01*
X123282464Y-84542981D01*
X123422981Y-84402464D01*
X123539787Y-84241694D01*
X123630005Y-84064632D01*
X123691413Y-83875636D01*
X123722500Y-83679361D01*
X123722500Y-83480639D01*
X123691413Y-83284364D01*
X123660709Y-83189866D01*
X123630006Y-83095370D01*
X123630005Y-83095367D01*
X123539786Y-82918305D01*
X123422981Y-82757536D01*
X123282464Y-82617019D01*
X123121694Y-82500213D01*
X122965218Y-82420484D01*
X122914423Y-82372510D01*
X122897628Y-82304689D01*
X122920165Y-82238554D01*
X122965218Y-82199515D01*
X123121694Y-82119787D01*
X123282464Y-82002981D01*
X123422981Y-81862464D01*
X123539787Y-81701694D01*
X123630005Y-81524632D01*
X123691413Y-81335636D01*
X123722500Y-81139361D01*
X123722500Y-80940639D01*
X123691413Y-80744364D01*
X123630005Y-80555368D01*
X123630005Y-80555367D01*
X123539786Y-80378305D01*
X123422981Y-80217536D01*
X123282464Y-80077019D01*
X123121694Y-79960213D01*
X122965218Y-79880484D01*
X122914423Y-79832510D01*
X122897628Y-79764689D01*
X122920165Y-79698554D01*
X122965218Y-79659515D01*
X123121694Y-79579787D01*
X123282464Y-79462981D01*
X123422981Y-79322464D01*
X123527494Y-79178614D01*
X123582824Y-79135949D01*
X123627812Y-79127500D01*
X138888719Y-79127500D01*
X138955758Y-79147185D01*
X138976400Y-79163819D01*
X141836181Y-82023600D01*
X141869666Y-82084923D01*
X141872500Y-82111281D01*
X141872500Y-99059688D01*
X141852815Y-99126727D01*
X141804796Y-99170172D01*
X141713569Y-99216655D01*
X141620216Y-99284481D01*
X141522490Y-99355483D01*
X141522488Y-99355485D01*
X141522487Y-99355485D01*
X141355485Y-99522487D01*
X141355485Y-99522488D01*
X141355483Y-99522490D01*
X141313205Y-99580681D01*
X141216657Y-99713566D01*
X141109433Y-99924003D01*
X141036446Y-100148631D01*
X140999500Y-100381902D01*
X140999500Y-100618097D01*
X141036446Y-100851368D01*
X141109433Y-101075996D01*
X141190897Y-101235876D01*
X141216657Y-101286433D01*
X141355483Y-101477510D01*
X141522490Y-101644517D01*
X141713567Y-101783343D01*
X141794305Y-101824481D01*
X141924003Y-101890566D01*
X141924005Y-101890566D01*
X141924008Y-101890568D01*
X142044412Y-101929689D01*
X142148631Y-101963553D01*
X142381903Y-102000500D01*
X142381908Y-102000500D01*
X142618097Y-102000500D01*
X142851368Y-101963553D01*
X142871671Y-101956956D01*
X143075992Y-101890568D01*
X143286433Y-101783343D01*
X143477510Y-101644517D01*
X143644517Y-101477510D01*
X143783343Y-101286433D01*
X143890568Y-101075992D01*
X143963553Y-100851368D01*
X143971334Y-100802240D01*
X144000500Y-100618097D01*
X144000500Y-100381902D01*
X143963553Y-100148631D01*
X143906186Y-99972075D01*
X143890568Y-99924008D01*
X143890566Y-99924005D01*
X143890566Y-99924003D01*
X143783342Y-99713566D01*
X143765594Y-99689138D01*
X143644517Y-99522490D01*
X143477510Y-99355483D01*
X143286433Y-99216657D01*
X143286432Y-99216656D01*
X143286430Y-99216655D01*
X143195204Y-99170172D01*
X143144409Y-99122197D01*
X143127500Y-99059688D01*
X143127500Y-97262332D01*
X147399500Y-97262332D01*
X147399500Y-97537667D01*
X147399501Y-97537684D01*
X147435438Y-97810655D01*
X147435439Y-97810660D01*
X147435440Y-97810666D01*
X147435441Y-97810668D01*
X147506704Y-98076630D01*
X147612075Y-98331017D01*
X147612080Y-98331028D01*
X147694861Y-98474407D01*
X147749751Y-98569479D01*
X147749753Y-98569482D01*
X147749754Y-98569483D01*
X147917370Y-98787926D01*
X147917376Y-98787933D01*
X148112066Y-98982623D01*
X148112072Y-98982628D01*
X148330521Y-99150249D01*
X148445543Y-99216657D01*
X148568971Y-99287919D01*
X148568976Y-99287921D01*
X148568979Y-99287923D01*
X148795953Y-99381939D01*
X148850356Y-99425780D01*
X148872421Y-99492074D01*
X148872500Y-99496500D01*
X148872500Y-106503499D01*
X148852815Y-106570538D01*
X148800011Y-106616293D01*
X148795953Y-106618060D01*
X148568983Y-106712074D01*
X148568971Y-106712080D01*
X148330516Y-106849754D01*
X148112073Y-107017370D01*
X148112066Y-107017376D01*
X147917376Y-107212066D01*
X147917370Y-107212073D01*
X147749754Y-107430516D01*
X147612080Y-107668971D01*
X147612075Y-107668982D01*
X147506704Y-107923369D01*
X147435441Y-108189331D01*
X147435438Y-108189344D01*
X147399501Y-108462315D01*
X147399500Y-108462332D01*
X147399500Y-108737667D01*
X147399501Y-108737684D01*
X147435438Y-109010655D01*
X147435439Y-109010660D01*
X147435440Y-109010666D01*
X147435441Y-109010668D01*
X147506704Y-109276630D01*
X147612075Y-109531017D01*
X147612080Y-109531028D01*
X147694861Y-109674407D01*
X147749751Y-109769479D01*
X147749753Y-109769482D01*
X147749754Y-109769483D01*
X147917370Y-109987926D01*
X147917376Y-109987933D01*
X148112066Y-110182623D01*
X148112072Y-110182628D01*
X148330521Y-110350249D01*
X148483778Y-110438732D01*
X148568971Y-110487919D01*
X148568976Y-110487921D01*
X148568979Y-110487923D01*
X148823368Y-110593295D01*
X149089334Y-110664560D01*
X149362326Y-110700500D01*
X149362333Y-110700500D01*
X149637667Y-110700500D01*
X149637674Y-110700500D01*
X149910666Y-110664560D01*
X150176632Y-110593295D01*
X150431021Y-110487923D01*
X150669479Y-110350249D01*
X150887928Y-110182628D01*
X151082628Y-109987928D01*
X151250249Y-109769479D01*
X151387923Y-109531021D01*
X151493295Y-109276632D01*
X151564560Y-109010666D01*
X151600500Y-108737674D01*
X151600500Y-108462326D01*
X151564560Y-108189334D01*
X151493295Y-107923368D01*
X151387923Y-107668979D01*
X151387921Y-107668976D01*
X151387919Y-107668971D01*
X151338732Y-107583778D01*
X151250249Y-107430521D01*
X151096359Y-107229967D01*
X151082629Y-107212073D01*
X151082623Y-107212066D01*
X150887933Y-107017376D01*
X150887926Y-107017370D01*
X150669483Y-106849754D01*
X150669482Y-106849753D01*
X150669479Y-106849751D01*
X150553714Y-106782914D01*
X150431028Y-106712080D01*
X150431016Y-106712074D01*
X150204047Y-106618060D01*
X150149644Y-106574219D01*
X150127579Y-106507924D01*
X150127500Y-106503499D01*
X150127500Y-99496500D01*
X150147185Y-99429461D01*
X150199989Y-99383706D01*
X150204034Y-99381944D01*
X150431021Y-99287923D01*
X150669479Y-99150249D01*
X150887928Y-98982628D01*
X151082628Y-98787928D01*
X151250249Y-98569479D01*
X151387923Y-98331021D01*
X151493295Y-98076632D01*
X151564560Y-97810666D01*
X151600500Y-97537674D01*
X151600500Y-97262326D01*
X151564560Y-96989334D01*
X151493295Y-96723368D01*
X151387923Y-96468979D01*
X151387921Y-96468976D01*
X151387919Y-96468971D01*
X151317557Y-96347102D01*
X151250249Y-96230521D01*
X151082628Y-96012072D01*
X151082623Y-96012066D01*
X150887933Y-95817376D01*
X150887926Y-95817370D01*
X150669483Y-95649754D01*
X150669482Y-95649753D01*
X150669479Y-95649751D01*
X150574407Y-95594861D01*
X150431028Y-95512080D01*
X150431017Y-95512075D01*
X150176630Y-95406704D01*
X150043649Y-95371072D01*
X149910666Y-95335440D01*
X149910660Y-95335439D01*
X149910655Y-95335438D01*
X149637684Y-95299501D01*
X149637679Y-95299500D01*
X149637674Y-95299500D01*
X149362326Y-95299500D01*
X149362320Y-95299500D01*
X149362315Y-95299501D01*
X149089344Y-95335438D01*
X149089337Y-95335439D01*
X149089334Y-95335440D01*
X149033125Y-95350500D01*
X148823369Y-95406704D01*
X148568982Y-95512075D01*
X148568971Y-95512080D01*
X148330516Y-95649754D01*
X148112073Y-95817370D01*
X148112066Y-95817376D01*
X147917376Y-96012066D01*
X147917370Y-96012073D01*
X147749754Y-96230516D01*
X147612080Y-96468971D01*
X147612075Y-96468982D01*
X147506704Y-96723369D01*
X147435441Y-96989331D01*
X147435438Y-96989344D01*
X147399501Y-97262315D01*
X147399500Y-97262332D01*
X143127500Y-97262332D01*
X143127500Y-81738195D01*
X143120239Y-81701694D01*
X143108445Y-81642402D01*
X143103386Y-81616966D01*
X143075676Y-81550070D01*
X143056083Y-81502767D01*
X143002154Y-81422057D01*
X142987414Y-81399996D01*
X142987413Y-81399994D01*
X142959553Y-81372134D01*
X142900008Y-81312589D01*
X141257424Y-79670005D01*
X139600011Y-78012591D01*
X139600007Y-78012588D01*
X139497239Y-77943920D01*
X139497226Y-77943913D01*
X139463785Y-77930062D01*
X139383035Y-77896614D01*
X139383027Y-77896612D01*
X139261807Y-77872500D01*
X139261803Y-77872500D01*
X123627812Y-77872500D01*
X123560773Y-77852815D01*
X123527494Y-77821386D01*
X123522717Y-77814811D01*
X123422981Y-77677536D01*
X123282464Y-77537019D01*
X123121694Y-77420213D01*
X122965218Y-77340484D01*
X122914423Y-77292510D01*
X122897628Y-77224689D01*
X122920165Y-77158554D01*
X122965218Y-77119515D01*
X123121694Y-77039787D01*
X123282464Y-76922981D01*
X123422981Y-76782464D01*
X123539787Y-76621694D01*
X123630005Y-76444632D01*
X123691413Y-76255636D01*
X123722500Y-76059361D01*
X123722500Y-75860639D01*
X123691413Y-75664364D01*
X123630005Y-75475368D01*
X123630003Y-75475363D01*
X123621052Y-75457796D01*
X123608155Y-75389127D01*
X123634431Y-75324386D01*
X123691537Y-75284129D01*
X123731536Y-75277500D01*
X149538719Y-75277500D01*
X149605758Y-75297185D01*
X149626400Y-75313819D01*
X153616181Y-79303600D01*
X153649666Y-79364923D01*
X153652500Y-79391281D01*
X153652500Y-103181807D01*
X153676612Y-103303028D01*
X153676613Y-103303032D01*
X153676614Y-103303035D01*
X153709890Y-103383368D01*
X153723917Y-103417233D01*
X153739125Y-103439993D01*
X153742863Y-103445587D01*
X153792590Y-103520010D01*
X153792591Y-103520011D01*
X155463181Y-105190600D01*
X155496666Y-105251923D01*
X155499500Y-105278281D01*
X155499500Y-106547870D01*
X155499501Y-106547876D01*
X155505908Y-106607483D01*
X155556202Y-106742328D01*
X155556206Y-106742335D01*
X155642452Y-106857544D01*
X155642455Y-106857547D01*
X155757664Y-106943793D01*
X155757671Y-106943797D01*
X155892517Y-106994091D01*
X155892516Y-106994091D01*
X155899444Y-106994835D01*
X155952127Y-107000500D01*
X158047872Y-107000499D01*
X158107483Y-106994091D01*
X158242331Y-106943796D01*
X158357546Y-106857546D01*
X158443796Y-106742331D01*
X158494091Y-106607483D01*
X158500500Y-106547873D01*
X158500499Y-104452128D01*
X158494091Y-104392517D01*
X158483634Y-104364481D01*
X158443797Y-104257671D01*
X158443793Y-104257664D01*
X158357547Y-104142455D01*
X158239400Y-104054009D01*
X158197530Y-103998075D01*
X158192546Y-103928383D01*
X158213394Y-103881857D01*
X158282914Y-103786171D01*
X158390102Y-103575802D01*
X158463065Y-103351247D01*
X158500000Y-103118052D01*
X158500000Y-102881947D01*
X158463065Y-102648752D01*
X158390102Y-102424197D01*
X158282914Y-102213828D01*
X158222658Y-102130894D01*
X158222658Y-102130893D01*
X157482962Y-102870589D01*
X157465925Y-102807007D01*
X157400099Y-102692993D01*
X157307007Y-102599901D01*
X157192993Y-102534075D01*
X157129409Y-102517037D01*
X157875716Y-101770729D01*
X157884891Y-101727054D01*
X157921257Y-101685386D01*
X157977510Y-101644517D01*
X158144517Y-101477510D01*
X158283343Y-101286433D01*
X158390568Y-101075992D01*
X158463553Y-100851368D01*
X158471334Y-100802240D01*
X158500500Y-100618097D01*
X158500500Y-100381902D01*
X158463553Y-100148631D01*
X158406186Y-99972075D01*
X158390568Y-99924008D01*
X158390566Y-99924005D01*
X158390566Y-99924003D01*
X158283342Y-99713566D01*
X158265594Y-99689138D01*
X158144517Y-99522490D01*
X157977510Y-99355483D01*
X157786433Y-99216657D01*
X157786432Y-99216656D01*
X157786430Y-99216655D01*
X157695204Y-99170172D01*
X157644409Y-99122197D01*
X157627500Y-99059688D01*
X157627500Y-78738194D01*
X157603386Y-78616970D01*
X157603385Y-78616969D01*
X157603385Y-78616965D01*
X157593288Y-78592589D01*
X157556086Y-78502773D01*
X157556079Y-78502760D01*
X157487412Y-78399993D01*
X157487411Y-78399992D01*
X157400008Y-78312589D01*
X155343055Y-76255636D01*
X153049754Y-73962334D01*
X152966131Y-73878711D01*
X156149500Y-73878711D01*
X156149500Y-74121288D01*
X156181161Y-74361785D01*
X156243947Y-74596104D01*
X156324260Y-74789995D01*
X156336776Y-74820212D01*
X156458064Y-75030289D01*
X156458066Y-75030292D01*
X156458067Y-75030293D01*
X156605733Y-75222736D01*
X156605739Y-75222743D01*
X156777256Y-75394260D01*
X156777262Y-75394265D01*
X156969711Y-75541936D01*
X157179788Y-75663224D01*
X157403900Y-75756054D01*
X157638211Y-75818838D01*
X157818586Y-75842584D01*
X157878711Y-75850500D01*
X157878712Y-75850500D01*
X158121289Y-75850500D01*
X158169388Y-75844167D01*
X158361789Y-75818838D01*
X158596100Y-75756054D01*
X158820212Y-75663224D01*
X159030289Y-75541936D01*
X159222738Y-75394265D01*
X159394265Y-75222738D01*
X159541936Y-75030289D01*
X159663224Y-74820212D01*
X159756054Y-74596100D01*
X159818838Y-74361789D01*
X159850500Y-74121288D01*
X159850500Y-73878712D01*
X159818838Y-73638211D01*
X159756054Y-73403900D01*
X159663224Y-73179788D01*
X159541936Y-72969711D01*
X159419496Y-72810144D01*
X159394266Y-72777263D01*
X159394260Y-72777256D01*
X159222743Y-72605739D01*
X159222736Y-72605733D01*
X159030293Y-72458067D01*
X159030292Y-72458066D01*
X159030289Y-72458064D01*
X158820212Y-72336776D01*
X158820205Y-72336773D01*
X158596104Y-72243947D01*
X158361785Y-72181161D01*
X158121289Y-72149500D01*
X158121288Y-72149500D01*
X157878712Y-72149500D01*
X157878711Y-72149500D01*
X157638214Y-72181161D01*
X157403895Y-72243947D01*
X157179794Y-72336773D01*
X157179785Y-72336777D01*
X156969706Y-72458067D01*
X156777263Y-72605733D01*
X156777256Y-72605739D01*
X156605739Y-72777256D01*
X156605733Y-72777263D01*
X156458067Y-72969706D01*
X156336777Y-73179785D01*
X156336773Y-73179794D01*
X156243947Y-73403895D01*
X156181161Y-73638214D01*
X156149500Y-73878711D01*
X152966131Y-73878711D01*
X150750011Y-71662591D01*
X150750007Y-71662588D01*
X150647239Y-71593920D01*
X150647226Y-71593913D01*
X150613785Y-71580062D01*
X150533035Y-71546614D01*
X150533027Y-71546612D01*
X150411807Y-71522500D01*
X150411803Y-71522500D01*
X123749382Y-71522500D01*
X123682343Y-71502815D01*
X123636588Y-71450011D01*
X123626644Y-71380853D01*
X123631451Y-71360182D01*
X123679554Y-71212134D01*
X123691413Y-71175636D01*
X123722500Y-70979361D01*
X123722500Y-70780639D01*
X123691413Y-70584364D01*
X123630005Y-70395368D01*
X123630005Y-70395367D01*
X123539786Y-70218305D01*
X123422981Y-70057536D01*
X123282464Y-69917019D01*
X123121694Y-69800213D01*
X122944632Y-69709994D01*
X122944629Y-69709993D01*
X122755637Y-69648587D01*
X122657498Y-69633043D01*
X122559361Y-69617500D01*
X122360639Y-69617500D01*
X122295214Y-69627862D01*
X122164362Y-69648587D01*
X121975370Y-69709993D01*
X121975367Y-69709994D01*
X121798305Y-69800213D01*
X121637533Y-69917021D01*
X121497021Y-70057533D01*
X121380213Y-70218305D01*
X121289994Y-70395367D01*
X121289993Y-70395370D01*
X121228587Y-70584362D01*
X121197500Y-70780639D01*
X121197500Y-70979360D01*
X121228587Y-71175637D01*
X121288549Y-71360182D01*
X121290544Y-71430023D01*
X121254464Y-71489856D01*
X121191763Y-71520684D01*
X121170618Y-71522500D01*
X108801281Y-71522500D01*
X108734242Y-71502815D01*
X108713600Y-71486181D01*
X108489477Y-71262058D01*
X108455992Y-71200735D01*
X108454685Y-71154979D01*
X108482500Y-70979360D01*
X108482500Y-70780639D01*
X108451413Y-70584364D01*
X108390005Y-70395368D01*
X108390005Y-70395367D01*
X108299786Y-70218305D01*
X108182981Y-70057536D01*
X108042464Y-69917019D01*
X107881694Y-69800213D01*
X107704632Y-69709994D01*
X107704629Y-69709993D01*
X107515637Y-69648587D01*
X107417498Y-69633043D01*
X107319361Y-69617500D01*
X107120639Y-69617500D01*
X107055214Y-69627862D01*
X106924362Y-69648587D01*
X106735370Y-69709993D01*
X106735367Y-69709994D01*
X106558305Y-69800213D01*
X106397533Y-69917021D01*
X106257021Y-70057533D01*
X106140213Y-70218305D01*
X106049994Y-70395367D01*
X106049993Y-70395370D01*
X105988587Y-70584362D01*
X105957500Y-70780639D01*
X105957500Y-70979360D01*
X105988587Y-71175637D01*
X106049993Y-71364629D01*
X106049994Y-71364632D01*
X106113800Y-71489856D01*
X106140213Y-71541694D01*
X106257019Y-71702464D01*
X106397536Y-71842981D01*
X106558306Y-71959787D01*
X106676832Y-72020179D01*
X106714780Y-72039515D01*
X106765576Y-72087490D01*
X106782371Y-72155311D01*
X106759833Y-72221446D01*
X106714780Y-72260485D01*
X106558305Y-72340213D01*
X106397533Y-72457021D01*
X106257021Y-72597533D01*
X106140213Y-72758305D01*
X106049994Y-72935367D01*
X106049993Y-72935370D01*
X105988587Y-73124362D01*
X105957500Y-73320639D01*
X105957500Y-73519360D01*
X105988587Y-73715637D01*
X106049993Y-73904629D01*
X106049994Y-73904632D01*
X106110052Y-74022500D01*
X106140213Y-74081694D01*
X106257019Y-74242464D01*
X106397536Y-74382981D01*
X106558306Y-74499787D01*
X106676832Y-74560179D01*
X106714780Y-74579515D01*
X106765576Y-74627490D01*
X106782371Y-74695311D01*
X106759833Y-74761446D01*
X106714780Y-74800485D01*
X106558305Y-74880213D01*
X106397533Y-74997021D01*
X106257021Y-75137533D01*
X106140213Y-75298305D01*
X106049994Y-75475367D01*
X106049993Y-75475370D01*
X105988587Y-75664362D01*
X105957500Y-75860639D01*
X105957500Y-76059360D01*
X105988587Y-76255637D01*
X106049993Y-76444629D01*
X106049994Y-76444632D01*
X106140213Y-76621694D01*
X106257019Y-76782464D01*
X106397536Y-76922981D01*
X106558306Y-77039787D01*
X106676832Y-77100179D01*
X106714780Y-77119515D01*
X106765576Y-77167490D01*
X106782371Y-77235311D01*
X106759833Y-77301446D01*
X106714780Y-77340485D01*
X106558305Y-77420213D01*
X106397533Y-77537021D01*
X106257021Y-77677533D01*
X106140210Y-77838309D01*
X106139000Y-77840285D01*
X106138343Y-77840878D01*
X106137349Y-77842248D01*
X106137061Y-77842039D01*
X106087190Y-77887163D01*
X106033270Y-77899500D01*
X91786669Y-77899500D01*
X91786653Y-77899499D01*
X91779057Y-77899499D01*
X91620943Y-77899499D01*
X91513587Y-77928265D01*
X91468210Y-77940424D01*
X91468209Y-77940425D01*
X91418096Y-77969359D01*
X91418095Y-77969360D01*
X91374689Y-77994420D01*
X91331285Y-78019479D01*
X91331282Y-78019481D01*
X70719482Y-98631281D01*
X70719478Y-98631287D01*
X70674322Y-98709500D01*
X70640424Y-98768212D01*
X70640423Y-98768213D01*
X70622473Y-98835204D01*
X70599499Y-98920943D01*
X70599499Y-99079057D01*
X70599499Y-99079059D01*
X70599500Y-99089053D01*
X70599500Y-117913330D01*
X70599499Y-117913348D01*
X70599499Y-118079054D01*
X70599498Y-118079054D01*
X65500500Y-118079054D01*
X65500500Y-73878711D01*
X69149500Y-73878711D01*
X69149500Y-74121288D01*
X69181161Y-74361785D01*
X69243947Y-74596104D01*
X69324260Y-74789995D01*
X69336776Y-74820212D01*
X69458064Y-75030289D01*
X69458066Y-75030292D01*
X69458067Y-75030293D01*
X69605733Y-75222736D01*
X69605739Y-75222743D01*
X69777256Y-75394260D01*
X69777262Y-75394265D01*
X69969711Y-75541936D01*
X70179788Y-75663224D01*
X70403900Y-75756054D01*
X70638211Y-75818838D01*
X70818586Y-75842584D01*
X70878711Y-75850500D01*
X70878712Y-75850500D01*
X71121289Y-75850500D01*
X71169388Y-75844167D01*
X71361789Y-75818838D01*
X71596100Y-75756054D01*
X71820212Y-75663224D01*
X72030289Y-75541936D01*
X72222738Y-75394265D01*
X72394265Y-75222738D01*
X72541936Y-75030289D01*
X72663224Y-74820212D01*
X72756054Y-74596100D01*
X72818838Y-74361789D01*
X72850500Y-74121288D01*
X72850500Y-73878712D01*
X72818838Y-73638211D01*
X72756054Y-73403900D01*
X72663224Y-73179788D01*
X72541936Y-72969711D01*
X72419496Y-72810144D01*
X72394266Y-72777263D01*
X72394260Y-72777256D01*
X72222743Y-72605739D01*
X72222736Y-72605733D01*
X72030293Y-72458067D01*
X72030292Y-72458066D01*
X72030289Y-72458064D01*
X71820212Y-72336776D01*
X71820205Y-72336773D01*
X71596104Y-72243947D01*
X71361785Y-72181161D01*
X71121289Y-72149500D01*
X71121288Y-72149500D01*
X70878712Y-72149500D01*
X70878711Y-72149500D01*
X70638214Y-72181161D01*
X70403895Y-72243947D01*
X70179794Y-72336773D01*
X70179785Y-72336777D01*
X69969706Y-72458067D01*
X69777263Y-72605733D01*
X69777256Y-72605739D01*
X69605739Y-72777256D01*
X69605733Y-72777263D01*
X69458067Y-72969706D01*
X69336777Y-73179785D01*
X69336773Y-73179794D01*
X69243947Y-73403895D01*
X69181161Y-73638214D01*
X69149500Y-73878711D01*
X65500500Y-73878711D01*
X65500500Y-68624500D01*
X65520185Y-68557461D01*
X65572989Y-68511706D01*
X65624500Y-68500500D01*
X163375500Y-68500500D01*
X163442539Y-68520185D01*
G37*
%TD.AperFunction*%
%TD*%
M02*
