M48
; DRILL file {KiCad 9.0.7} date 2026-01-03T15:51:34+0100
; FORMAT={-:-/ absolute / metric / decimal}
; #@! TF.CreationDate,2026-01-03T15:51:34+01:00
; #@! TF.GenerationSoftware,Kicad,Pcbnew,9.0.7
; #@! TF.FileFunction,Plated,1,2,PTH
FMAT,2
METRIC
; #@! TA.AperFunction,Plated,PTH,ComponentDrill
T1C0.889
; #@! TA.AperFunction,Plated,PTH,ComponentDrill
T2C1.000
; #@! TA.AperFunction,Plated,PTH,ComponentDrill
T3C1.500
; #@! TA.AperFunction,Plated,PTH,ComponentDrill
T4C2.600
%
G90
G05
T1
X107.22Y-70.88
X107.22Y-73.42
X107.22Y-75.96
X107.22Y-78.5
X107.22Y-81.04
X107.22Y-83.58
X107.22Y-86.12
X122.46Y-70.88
X122.46Y-73.42
X122.46Y-75.96
X122.46Y-78.5
X122.46Y-81.04
X122.46Y-83.58
X122.46Y-86.12
T2
X95.75Y-99.19
X95.75Y-101.73
X95.75Y-104.27
X95.75Y-106.81
X142.5Y-100.5
X142.5Y-105.5
X157.0Y-100.5
X157.0Y-103.0
X157.0Y-105.5
T3
X75.69Y-100.46
X82.04Y-97.92
X82.115Y-123.666
X88.465Y-121.126
X101.165Y-123.666
X107.515Y-121.126
X120.215Y-123.666
X126.565Y-121.126
X139.265Y-123.666
X145.615Y-121.126
T4
X149.5Y-97.4
X149.5Y-108.6
M30
